<svg xmlns="http://www.w3.org/2000/svg" width="1920" height="1080"><path d="M1026,521L1111,406L993,416Z" fill="#f2e7e1" stroke="#f2e7e1" stroke-width="1.51"/><path d="M1026,521L1151,560L1111,406Z" fill="#ebebeb" stroke="#ebebeb" stroke-width="1.51"/><path d="M993,416L898,518L1026,521Z" fill="#f8efea" stroke="#f8efea" stroke-width="1.51"/><path d="M993,289L911,411L993,416Z" fill="#fad9cb" stroke="#fad9cb" stroke-width="1.51"/><path d="M911,411L898,518L993,416Z" fill="#fae9df" stroke="#fae9df" stroke-width="1.51"/><path d="M1026,521L1040,664L1151,560Z" fill="#e5eef4" stroke="#e5eef4" stroke-width="1.51"/><path d="M1111,406L993,289L993,416Z" fill="#f4d6c9" stroke="#f4d6c9" stroke-width="1.51"/><path d="M1111,406L1145,294L993,289Z" fill="#efcabc" stroke="#efcabc" stroke-width="1.51"/><path d="M1235,303L1145,294L1111,406Z" fill="#e7c7bb" stroke="#e7c7bb" stroke-width="1.51"/><path d="M898,518L1040,664L1026,521Z" fill="#f0f3f6" stroke="#f0f3f6" stroke-width="1.51"/><path d="M1040,664L1145,649L1151,560Z" fill="#d9e9f1" stroke="#d9e9f1" stroke-width="1.51"/><path d="M1151,560L1272,425L1111,406Z" fill="#e4e2e2" stroke="#e4e2e2" stroke-width="1.51"/><path d="M1269,519L1272,425L1151,560Z" fill="#dae3e8" stroke="#dae3e8" stroke-width="1.51"/><path d="M993,289L903,295L911,411Z" fill="#facebb" stroke="#facebb" stroke-width="1.51"/><path d="M911,411L775,444L898,518Z" fill="#fce5d8" stroke="#fce5d8" stroke-width="1.51"/><path d="M1226,661L1269,519L1151,560Z" fill="#d3e5ef" stroke="#d3e5ef" stroke-width="1.51"/><path d="M1272,425L1235,303L1111,406Z" fill="#e1cec7" stroke="#e1cec7" stroke-width="1.51"/><path d="M1145,649L1226,661L1151,560Z" fill="#d2e5f0" stroke="#d2e5f0" stroke-width="1.51"/><path d="M1109,793L1226,661L1145,649Z" fill="#c1dceb" stroke="#c1dceb" stroke-width="1.51"/><path d="M993,289L912,179L903,295Z" fill="#f2b6a6" stroke="#f2b6a6" stroke-width="1.51"/><path d="M1145,294L1003,180L993,289Z" fill="#ebb4a7" stroke="#ebb4a7" stroke-width="1.51"/><path d="M1141,167L1003,180L1145,294Z" fill="#e2a69c" stroke="#e2a69c" stroke-width="1.51"/><path d="M898,518L892,680L1040,664Z" fill="#eaeff3" stroke="#eaeff3" stroke-width="1.51"/><path d="M1040,664L1109,793L1145,649Z" fill="#c7dfed" stroke="#c7dfed" stroke-width="1.51"/><path d="M795,559L892,680L898,518Z" fill="#f1ece9" stroke="#f1ece9" stroke-width="1.51"/><path d="M802,285L775,444L911,411Z" fill="#fcd2bd" stroke="#fcd2bd" stroke-width="1.51"/><path d="M775,444L795,559L898,518Z" fill="#fbe8de" stroke="#fbe8de" stroke-width="1.51"/><path d="M1269,519L1349,451L1272,425Z" fill="#d2d9dc" stroke="#d2d9dc" stroke-width="1.51"/><path d="M1272,425L1349,336L1235,303Z" fill="#d6c2bc" stroke="#d6c2bc" stroke-width="1.51"/><path d="M1379,514L1349,451L1269,519Z" fill="#cad9e1" stroke="#cad9e1" stroke-width="1.51"/><path d="M1238,178L1141,167L1145,294Z" fill="#dba19a" stroke="#dba19a" stroke-width="1.51"/><path d="M1238,178L1145,294L1235,303Z" fill="#dbada4" stroke="#dbada4" stroke-width="1.51"/><path d="M892,680L1009,752L1040,664Z" fill="#d4e5ef" stroke="#d4e5ef" stroke-width="1.51"/><path d="M903,295L802,285L911,411Z" fill="#fac9b3" stroke="#fac9b3" stroke-width="1.51"/><path d="M912,179L802,285L903,295Z" fill="#f3b19e" stroke="#f3b19e" stroke-width="1.51"/><path d="M1003,180L912,179L993,289Z" fill="#eeac9e" stroke="#eeac9e" stroke-width="1.51"/><path d="M890,89L912,179L1003,180Z" fill="#e5998f" stroke="#e5998f" stroke-width="1.51"/><path d="M1349,451L1349,336L1272,425Z" fill="#d0cbcb" stroke="#d0cbcb" stroke-width="1.51"/><path d="M1341,647L1379,514L1269,519Z" fill="#c5ddeb" stroke="#c5ddeb" stroke-width="1.51"/><path d="M1482,420L1452,320L1349,336Z" fill="#c0b3b5" stroke="#c0b3b5" stroke-width="1.51"/><path d="M1360,189L1238,178L1235,303Z" fill="#cd9d98" stroke="#cd9d98" stroke-width="1.51"/><path d="M795,559L798,663L892,680Z" fill="#eae6e4" stroke="#eae6e4" stroke-width="1.51"/><path d="M892,680L884,767L1009,752Z" fill="#cddfe9" stroke="#cddfe9" stroke-width="1.51"/><path d="M694,564L798,663L795,559Z" fill="#f2e4dc" stroke="#f2e4dc" stroke-width="1.51"/><path d="M1009,752L1109,793L1040,664Z" fill="#c2dceb" stroke="#c2dceb" stroke-width="1.51"/><path d="M1226,661L1341,647L1269,519Z" fill="#c4ddec" stroke="#c4ddec" stroke-width="1.51"/><path d="M1256,789L1341,647L1226,661Z" fill="#afd3e6" stroke="#afd3e6" stroke-width="1.51"/><path d="M795,759L884,767L892,680Z" fill="#cfdadf" stroke="#cfdadf" stroke-width="1.51"/><path d="M1009,752L1015,868L1109,793Z" fill="#aecee3" stroke="#aecee3" stroke-width="1.51"/><path d="M1157,94L1038,87L1141,167Z" fill="#d48c89" stroke="#d48c89" stroke-width="1.51"/><path d="M1141,167L1038,87L1003,180Z" fill="#dd968f" stroke="#dd968f" stroke-width="1.51"/><path d="M1223,90L1157,94L1141,167Z" fill="#ce8988" stroke="#ce8988" stroke-width="1.51"/><path d="M775,444L694,564L795,559Z" fill="#fbe4d8" stroke="#fbe4d8" stroke-width="1.51"/><path d="M798,663L795,759L892,680Z" fill="#d9dddf" stroke="#d9dddf" stroke-width="1.51"/><path d="M645,431L694,564L775,444Z" fill="#fcd8c6" stroke="#fcd8c6" stroke-width="1.51"/><path d="M1109,793L1256,789L1226,661Z" fill="#add2e5" stroke="#add2e5" stroke-width="1.51"/><path d="M802,285L693,297L775,444Z" fill="#fac3a8" stroke="#fac3a8" stroke-width="1.51"/><path d="M765,170L693,297L802,285Z" fill="#f1a78e" stroke="#f1a78e" stroke-width="1.51"/><path d="M765,170L802,285L912,179Z" fill="#eda18d" stroke="#eda18d" stroke-width="1.51"/><path d="M1238,178L1223,90L1141,167Z" fill="#cf8e8c" stroke="#cf8e8c" stroke-width="1.51"/><path d="M1157,94L1108,-35L1038,87Z" fill="#bc8184" stroke="#bc8184" stroke-width="1.51"/><path d="M1350,96L1223,90L1238,178Z" fill="#c28385" stroke="#c28385" stroke-width="1.51"/><path d="M1038,87L890,89L1003,180Z" fill="#e0928c" stroke="#e0928c" stroke-width="1.51"/><path d="M923,884L1015,868L1009,752Z" fill="#accae0" stroke="#accae0" stroke-width="1.51"/><path d="M666,659L795,759L798,663Z" fill="#ddd7d5" stroke="#ddd7d5" stroke-width="1.51"/><path d="M1349,336L1360,189L1235,303Z" fill="#cdaaa4" stroke="#cdaaa4" stroke-width="1.51"/><path d="M1452,320L1360,189L1349,336Z" fill="#c3a3a2" stroke="#c3a3a2" stroke-width="1.51"/><path d="M890,89L765,170L912,179Z" fill="#e49386" stroke="#e49386" stroke-width="1.51"/><path d="M693,297L645,431L775,444Z" fill="#fbc8ae" stroke="#fbc8ae" stroke-width="1.51"/><path d="M923,884L1009,752L884,767Z" fill="#b9d2e3" stroke="#b9d2e3" stroke-width="1.51"/><path d="M1109,793L1150,880L1256,789Z" fill="#9bc4de" stroke="#9bc4de" stroke-width="1.51"/><path d="M1482,420L1349,336L1349,451Z" fill="#c5c2c6" stroke="#c5c2c6" stroke-width="1.51"/><path d="M1341,647L1461,555L1379,514Z" fill="#b8d5e6" stroke="#b8d5e6" stroke-width="1.51"/><path d="M1464,676L1461,555L1341,647Z" fill="#a9cce2" stroke="#a9cce2" stroke-width="1.51"/><path d="M1482,420L1349,451L1379,514Z" fill="#c1ccd5" stroke="#c1ccd5" stroke-width="1.51"/><path d="M1461,555L1482,420L1379,514Z" fill="#b8cbda" stroke="#b8cbda" stroke-width="1.51"/><path d="M1015,868L1150,880L1109,793Z" fill="#9cc2dd" stroke="#9cc2dd" stroke-width="1.51"/><path d="M694,564L666,659L798,663Z" fill="#ecdbd3" stroke="#ecdbd3" stroke-width="1.51"/><path d="M573,566L666,659L694,564Z" fill="#f1d3c6" stroke="#f1d3c6" stroke-width="1.51"/><path d="M1272,864L1372,773L1256,789Z" fill="#89bcda" stroke="#89bcda" stroke-width="1.51"/><path d="M1256,789L1372,773L1341,647Z" fill="#9cc9e1" stroke="#9cc9e1" stroke-width="1.51"/><path d="M1015,868L1147,977L1150,880Z" fill="#91b3d6" stroke="#91b3d6" stroke-width="1.51"/><path d="M791,912L923,884L884,767Z" fill="#acbfd2" stroke="#acbfd2" stroke-width="1.51"/><path d="M791,912L884,767L795,759Z" fill="#bac6d3" stroke="#bac6d3" stroke-width="1.51"/><path d="M890,89L761,106L765,170Z" fill="#e0887b" stroke="#e0887b" stroke-width="1.51"/><path d="M765,170L673,200L693,297Z" fill="#ec987f" stroke="#ec987f" stroke-width="1.51"/><path d="M550,317L563,413L645,431Z" fill="#f8b698" stroke="#f8b698" stroke-width="1.51"/><path d="M694,80L673,200L765,170Z" fill="#e18572" stroke="#e18572" stroke-width="1.51"/><path d="M1360,189L1350,96L1238,178Z" fill="#c08889" stroke="#c08889" stroke-width="1.51"/><path d="M1493,70L1350,96L1360,189Z" fill="#af767e" stroke="#af767e" stroke-width="1.51"/><path d="M1150,880L1272,864L1256,789Z" fill="#8abad9" stroke="#8abad9" stroke-width="1.51"/><path d="M1609,552L1613,448L1482,420Z" fill="#a8b7cd" stroke="#a8b7cd" stroke-width="1.51"/><path d="M1372,773L1464,676L1341,647Z" fill="#9bc7df" stroke="#9bc7df" stroke-width="1.51"/><path d="M1038,87L899,-28L890,89Z" fill="#c88584" stroke="#c88584" stroke-width="1.51"/><path d="M890,89L762,-32L761,106Z" fill="#c97d74" stroke="#c97d74" stroke-width="1.51"/><path d="M1230,-61L1108,-35L1157,94Z" fill="#a3777f" stroke="#a3777f" stroke-width="1.51"/><path d="M1230,-61L1157,94L1223,90Z" fill="#af7a80" stroke="#af7a80" stroke-width="1.51"/><path d="M645,431L573,566L694,564Z" fill="#fbd4c2" stroke="#fbd4c2" stroke-width="1.51"/><path d="M550,317L645,431L693,297Z" fill="#f8b293" stroke="#f8b293" stroke-width="1.51"/><path d="M563,413L573,566L645,431Z" fill="#fac7af" stroke="#fac7af" stroke-width="1.51"/><path d="M1108,-35L1037,-42L1038,87Z" fill="#ae7c80" stroke="#ae7c80" stroke-width="1.51"/><path d="M1592,298L1486,206L1452,320Z" fill="#b09298" stroke="#b09298" stroke-width="1.51"/><path d="M1452,320L1486,206L1360,189Z" fill="#b99194" stroke="#b99194" stroke-width="1.51"/><path d="M1037,-42L899,-28L1038,87Z" fill="#b47f82" stroke="#b47f82" stroke-width="1.51"/><path d="M1372,773L1462,766L1464,676Z" fill="#88bcda" stroke="#88bcda" stroke-width="1.51"/><path d="M1609,552L1482,420L1461,555Z" fill="#aac3d8" stroke="#aac3d8" stroke-width="1.51"/><path d="M1466,903L1462,766L1372,773Z" fill="#6eabd1" stroke="#6eabd1" stroke-width="1.51"/><path d="M761,106L694,80L765,170Z" fill="#de8171" stroke="#de8171" stroke-width="1.51"/><path d="M577,214L550,317L693,297Z" fill="#ef9b7b" stroke="#ef9b7b" stroke-width="1.51"/><path d="M762,-32L694,80L761,106Z" fill="#c7766b" stroke="#c7766b" stroke-width="1.51"/><path d="M448,562L558,628L573,566Z" fill="#f0c2b2" stroke="#f0c2b2" stroke-width="1.51"/><path d="M577,214L693,297L673,200Z" fill="#ec9478" stroke="#ec9478" stroke-width="1.51"/><path d="M692,886L791,912L795,759Z" fill="#b0b8c6" stroke="#b0b8c6" stroke-width="1.51"/><path d="M573,566L558,628L666,659Z" fill="#eecbbd" stroke="#eecbbd" stroke-width="1.51"/><path d="M448,562L573,566L563,413Z" fill="#f7c2ae" stroke="#f7c2ae" stroke-width="1.51"/><path d="M649,795L795,759L666,659Z" fill="#d1cac8" stroke="#d1cac8" stroke-width="1.51"/><path d="M1010,1015L1147,977L1015,868Z" fill="#90abd2" stroke="#90abd2" stroke-width="1.51"/><path d="M559,778L649,795L666,659Z" fill="#d0bfb9" stroke="#d0bfb9" stroke-width="1.51"/><path d="M1010,1015L1015,868L923,884Z" fill="#9cb5d7" stroke="#9cb5d7" stroke-width="1.51"/><path d="M1150,880L1268,973L1272,864Z" fill="#7eabd2" stroke="#7eabd2" stroke-width="1.51"/><path d="M1272,864L1341,911L1372,773Z" fill="#76b1d3" stroke="#76b1d3" stroke-width="1.51"/><path d="M577,52L577,214L673,200Z" fill="#de7862" stroke="#de7862" stroke-width="1.51"/><path d="M1268,973L1341,911L1272,864Z" fill="#71a4ce" stroke="#71a4ce" stroke-width="1.51"/><path d="M1349,-63L1230,-61L1350,96Z" fill="#906c78" stroke="#906c78" stroke-width="1.51"/><path d="M1350,96L1230,-61L1223,90Z" fill="#a6767d" stroke="#a6767d" stroke-width="1.51"/><path d="M1108,-35L1020,-157L1037,-42Z" fill="#ad7b81" stroke="#ad7b81" stroke-width="1.51"/><path d="M1482,420L1592,298L1452,320Z" fill="#b3a5ac" stroke="#b3a5ac" stroke-width="1.51"/><path d="M1609,552L1461,555L1608,640Z" fill="#9cbdda" stroke="#9cbdda" stroke-width="1.51"/><path d="M1613,448L1592,298L1482,420Z" fill="#ada9b6" stroke="#ada9b6" stroke-width="1.51"/><path d="M1486,206L1493,70L1360,189Z" fill="#ad7982" stroke="#ad7982" stroke-width="1.51"/><path d="M1147,977L1268,973L1150,880Z" fill="#81a7d0" stroke="#81a7d0" stroke-width="1.51"/><path d="M1608,640L1461,555L1464,676Z" fill="#9ac0dd" stroke="#9ac0dd" stroke-width="1.51"/><path d="M890,997L1010,1015L923,884Z" fill="#9aabd0" stroke="#9aabd0" stroke-width="1.51"/><path d="M1147,977L1257,1105L1268,973Z" fill="#7090b9" stroke="#7090b9" stroke-width="1.51"/><path d="M791,912L890,997L923,884Z" fill="#a1aecb" stroke="#a1aecb" stroke-width="1.51"/><path d="M649,795L692,886L795,759Z" fill="#bcbbc2" stroke="#bcbbc2" stroke-width="1.51"/><path d="M543,907L692,886L649,795Z" fill="#afa4ac" stroke="#afa4ac" stroke-width="1.51"/><path d="M800,989L890,997L791,912Z" fill="#9fa3c2" stroke="#9fa3c2" stroke-width="1.51"/><path d="M694,80L577,52L673,200Z" fill="#d97261" stroke="#d97261" stroke-width="1.51"/><path d="M899,-28L762,-32L890,89Z" fill="#b87976" stroke="#b87976" stroke-width="1.51"/><path d="M791,-132L762,-32L899,-28Z" fill="#b47572" stroke="#b47572" stroke-width="1.51"/><path d="M1020,-157L899,-28L1037,-42Z" fill="#b37e82" stroke="#b37e82" stroke-width="1.51"/><path d="M1592,298L1581,207L1486,206Z" fill="#a7818c" stroke="#a7818c" stroke-width="1.51"/><path d="M1706,300L1581,207L1592,298Z" fill="#a48190" stroke="#a48190" stroke-width="1.51"/><path d="M1581,207L1493,70L1486,206Z" fill="#a2717e" stroke="#a2717e" stroke-width="1.51"/><path d="M1700,525L1703,421L1613,448Z" fill="#a2a9c5" stroke="#a2a9c5" stroke-width="1.51"/><path d="M1587,783L1608,640L1464,676Z" fill="#80b2d4" stroke="#80b2d4" stroke-width="1.51"/><path d="M1587,783L1464,676L1462,766Z" fill="#79b2d4" stroke="#79b2d4" stroke-width="1.51"/><path d="M672,984L800,989L791,912Z" fill="#a19eb9" stroke="#a19eb9" stroke-width="1.51"/><path d="M1009,1127L1125,1097L1010,1015Z" fill="#7c89a8" stroke="#7c89a8" stroke-width="1.51"/><path d="M558,628L559,778L666,659Z" fill="#dec2b8" stroke="#dec2b8" stroke-width="1.51"/><path d="M692,886L672,984L791,912Z" fill="#a6a1b7" stroke="#a6a1b7" stroke-width="1.51"/><path d="M463,764L559,778L558,628Z" fill="#d3b2ab" stroke="#d3b2ab" stroke-width="1.51"/><path d="M1493,70L1349,-63L1350,96Z" fill="#916977" stroke="#916977" stroke-width="1.51"/><path d="M1341,911L1466,903L1372,773Z" fill="#65a6cd" stroke="#65a6cd" stroke-width="1.51"/><path d="M1389,1011L1466,903L1341,911Z" fill="#5a93c4" stroke="#5a93c4" stroke-width="1.51"/><path d="M550,317L447,398L563,413Z" fill="#f4a88a" stroke="#f4a88a" stroke-width="1.51"/><path d="M421,309L447,398L550,317Z" fill="#ee9779" stroke="#ee9779" stroke-width="1.51"/><path d="M1131,-171L1108,-35L1230,-61Z" fill="#a4777f" stroke="#a4777f" stroke-width="1.51"/><path d="M1131,-171L1020,-157L1108,-35Z" fill="#aa7a80" stroke="#aa7a80" stroke-width="1.51"/><path d="M447,398L448,562L563,413Z" fill="#f4b49c" stroke="#f4b49c" stroke-width="1.51"/><path d="M1575,882L1587,783L1462,766Z" fill="#5a9ec9" stroke="#5a9ec9" stroke-width="1.51"/><path d="M443,210L421,309L550,317Z" fill="#e68568" stroke="#e68568" stroke-width="1.51"/><path d="M648,-26L577,52L694,80Z" fill="#bd665a" stroke="#bd665a" stroke-width="1.51"/><path d="M648,-26L694,80L762,-32Z" fill="#b46a62" stroke="#b46a62" stroke-width="1.51"/><path d="M1020,-157L892,-152L899,-28Z" fill="#b57e7f" stroke="#b57e7f" stroke-width="1.51"/><path d="M1020,-157L1131,-171L892,-152Z" fill="#b07d81" stroke="#b07d81" stroke-width="1.51"/><path d="M1250,-178L1131,-171L1230,-61Z" fill="#9e747d" stroke="#9e747d" stroke-width="1.51"/><path d="M649,-171L648,-26L762,-32Z" fill="#b1675f" stroke="#b1675f" stroke-width="1.51"/><path d="M448,562L446,629L558,628Z" fill="#eab8ac" stroke="#eab8ac" stroke-width="1.51"/><path d="M321,637L446,629L448,562Z" fill="#e6aaa0" stroke="#e6aaa0" stroke-width="1.51"/><path d="M892,-152L791,-132L899,-28Z" fill="#b47877" stroke="#b47877" stroke-width="1.51"/><path d="M1009,1127L1010,1015L895,1125Z" fill="#838caa" stroke="#838caa" stroke-width="1.51"/><path d="M1010,1015L1125,1097L1147,977Z" fill="#8094ba" stroke="#8094ba" stroke-width="1.51"/><path d="M1268,973L1389,1011L1341,911Z" fill="#6496c6" stroke="#6496c6" stroke-width="1.51"/><path d="M1613,448L1703,421L1592,298Z" fill="#a89fb2" stroke="#a89fb2" stroke-width="1.51"/><path d="M1700,525L1613,448L1609,552Z" fill="#a0b2d0" stroke="#a0b2d0" stroke-width="1.51"/><path d="M1700,525L1609,552L1608,640Z" fill="#99b4d6" stroke="#99b4d6" stroke-width="1.51"/><path d="M1726,670L1700,525L1608,640Z" fill="#8eacd2" stroke="#8eacd2" stroke-width="1.51"/><path d="M1257,1105L1389,1011L1268,973Z" fill="#6086b2" stroke="#6086b2" stroke-width="1.51"/><path d="M1466,903L1575,882L1462,766Z" fill="#529ac7" stroke="#529ac7" stroke-width="1.51"/><path d="M447,398L329,432L448,562Z" fill="#efa692" stroke="#efa692" stroke-width="1.51"/><path d="M443,210L550,317L577,214Z" fill="#e68367" stroke="#e68367" stroke-width="1.51"/><path d="M895,1125L1010,1015L890,997Z" fill="#8c94b3" stroke="#8c94b3" stroke-width="1.51"/><path d="M543,907L672,984L692,886Z" fill="#a897a8" stroke="#a897a8" stroke-width="1.51"/><path d="M543,907L649,795L559,778Z" fill="#baa6a9" stroke="#baa6a9" stroke-width="1.51"/><path d="M444,89L443,210L577,214Z" fill="#d86753" stroke="#d86753" stroke-width="1.51"/><path d="M1349,-63L1250,-178L1230,-61Z" fill="#956e7a" stroke="#956e7a" stroke-width="1.51"/><path d="M1373,-177L1250,-178L1349,-63Z" fill="#8e6b78" stroke="#8e6b78" stroke-width="1.51"/><path d="M1493,70L1495,-57L1349,-63Z" fill="#7d5d71" stroke="#7d5d71" stroke-width="1.51"/><path d="M1581,207L1602,77L1493,70Z" fill="#996374" stroke="#996374" stroke-width="1.51"/><path d="M1703,81L1602,77L1581,207Z" fill="#955a71" stroke="#955a71" stroke-width="1.51"/><path d="M1703,421L1706,300L1592,298Z" fill="#a690a1" stroke="#a690a1" stroke-width="1.51"/><path d="M446,629L463,764L558,628Z" fill="#ddb2a9" stroke="#ddb2a9" stroke-width="1.51"/><path d="M1694,779L1726,670L1608,640Z" fill="#78a3cd" stroke="#78a3cd" stroke-width="1.51"/><path d="M1606,1010L1575,882L1466,903Z" fill="#3983bb" stroke="#3983bb" stroke-width="1.51"/><path d="M1620,-18L1495,-57L1493,70Z" fill="#70536b" stroke="#70536b" stroke-width="1.51"/><path d="M895,1125L890,997L793,1107Z" fill="#88879f" stroke="#88879f" stroke-width="1.51"/><path d="M1389,1011L1458,1015L1466,903Z" fill="#4d87bd" stroke="#4d87bd" stroke-width="1.51"/><path d="M1125,1097L1257,1105L1147,977Z" fill="#7188ad" stroke="#7188ad" stroke-width="1.51"/><path d="M1125,1213L1257,1105L1125,1097Z" fill="#6f83a5" stroke="#6f83a5" stroke-width="1.51"/><path d="M445,868L543,907L559,778Z" fill="#b0969c" stroke="#b0969c" stroke-width="1.51"/><path d="M793,1107L800,989L676,1108Z" fill="#8d8296" stroke="#8d8296" stroke-width="1.51"/><path d="M793,1107L890,997L800,989Z" fill="#9291ac" stroke="#9291ac" stroke-width="1.51"/><path d="M1383,1100L1458,1015L1389,1011Z" fill="#4a78a7" stroke="#4a78a7" stroke-width="1.51"/><path d="M676,1108L800,989L672,984Z" fill="#96879e" stroke="#96879e" stroke-width="1.51"/><path d="M1694,779L1608,640L1587,783Z" fill="#6fa3cd" stroke="#6fa3cd" stroke-width="1.51"/><path d="M1835,416L1808,323L1703,421Z" fill="#9b8aa1" stroke="#9b8aa1" stroke-width="1.51"/><path d="M1808,323L1722,204L1706,300Z" fill="#9c7489" stroke="#9c7489" stroke-width="1.51"/><path d="M1486,-140L1373,-177L1349,-63Z" fill="#836274" stroke="#836274" stroke-width="1.51"/><path d="M1706,300L1722,204L1581,207Z" fill="#9f7286" stroke="#9f7286" stroke-width="1.51"/><path d="M1574,-171L1486,-140L1495,-57Z" fill="#72556c" stroke="#72556c" stroke-width="1.51"/><path d="M1808,323L1706,300L1703,421Z" fill="#a1889e" stroke="#a1889e" stroke-width="1.51"/><path d="M577,52L444,89L577,214Z" fill="#d36250" stroke="#d36250" stroke-width="1.51"/><path d="M443,210L353,295L421,309Z" fill="#e0765d" stroke="#e0765d" stroke-width="1.51"/><path d="M531,-32L444,89L577,52Z" fill="#b55248" stroke="#b55248" stroke-width="1.51"/><path d="M531,-32L577,52L648,-26Z" fill="#ad594f" stroke="#ad594f" stroke-width="1.51"/><path d="M567,-164L531,-32L648,-26Z" fill="#ad584e" stroke="#ad584e" stroke-width="1.51"/><path d="M1706,886L1587,783L1575,882Z" fill="#438bc0" stroke="#438bc0" stroke-width="1.51"/><path d="M1706,886L1694,779L1587,783Z" fill="#4f8fc2" stroke="#4f8fc2" stroke-width="1.51"/><path d="M421,309L329,432L447,398Z" fill="#eb947a" stroke="#eb947a" stroke-width="1.51"/><path d="M446,629L317,757L463,764Z" fill="#cf9f9a" stroke="#cf9f9a" stroke-width="1.51"/><path d="M309,218L353,295L443,210Z" fill="#d86651" stroke="#d86651" stroke-width="1.51"/><path d="M1257,1105L1383,1100L1389,1011Z" fill="#5278a0" stroke="#5278a0" stroke-width="1.51"/><path d="M1458,1015L1606,1010L1466,903Z" fill="#3b7eb8" stroke="#3b7eb8" stroke-width="1.51"/><path d="M1365,1241L1383,1100L1257,1105Z" fill="#53769e" stroke="#53769e" stroke-width="1.51"/><path d="M353,295L329,432L421,309Z" fill="#e6866c" stroke="#e6866c" stroke-width="1.51"/><path d="M329,432L331,538L448,562Z" fill="#eda697" stroke="#eda697" stroke-width="1.51"/><path d="M463,764L445,868L559,778Z" fill="#bc9c9d" stroke="#bc9c9d" stroke-width="1.51"/><path d="M1495,-57L1486,-140L1349,-63Z" fill="#7d5e71" stroke="#7d5e71" stroke-width="1.51"/><path d="M1620,-18L1493,70L1602,77Z" fill="#7e556d" stroke="#7e556d" stroke-width="1.51"/><path d="M1689,-10L1620,-18L1602,77Z" fill="#6f4967" stroke="#6f4967" stroke-width="1.51"/><path d="M543,907L548,991L672,984Z" fill="#a3899c" stroke="#a3899c" stroke-width="1.51"/><path d="M317,757L445,868L463,764Z" fill="#ba9092" stroke="#ba9092" stroke-width="1.51"/><path d="M461,980L548,991L543,907Z" fill="#a17d92" stroke="#a17d92" stroke-width="1.51"/><path d="M791,-132L649,-171L762,-32Z" fill="#b36d67" stroke="#b36d67" stroke-width="1.51"/><path d="M892,-152L649,-171L791,-132Z" fill="#b4726e" stroke="#b4726e" stroke-width="1.51"/><path d="M1131,-171L649,-171L892,-152Z" fill="#b57a7b" stroke="#b57a7b" stroke-width="1.51"/><path d="M1250,-178L649,-171L1131,-171Z" fill="#b07d81" stroke="#b07d81" stroke-width="1.51"/><path d="M1722,204L1703,81L1581,207Z" fill="#976077" stroke="#976077" stroke-width="1.51"/><path d="M548,991L676,1108L672,984Z" fill="#967c8f" stroke="#967c8f" stroke-width="1.51"/><path d="M923,1214L1009,1127L895,1125Z" fill="#858ba8" stroke="#858ba8" stroke-width="1.51"/><path d="M1009,1127L1044,1211L1125,1097Z" fill="#7a88a8" stroke="#7a88a8" stroke-width="1.51"/><path d="M923,1214L1044,1211L1009,1127Z" fill="#818ba9" stroke="#818ba9" stroke-width="1.51"/><path d="M923,1214L895,1125L797,1210Z" fill="#8786a0" stroke="#8786a0" stroke-width="1.51"/><path d="M331,538L321,637L448,562Z" fill="#e7a79b" stroke="#e7a79b" stroke-width="1.51"/><path d="M233,635L321,637L331,538Z" fill="#df9a93" stroke="#df9a93" stroke-width="1.51"/><path d="M1044,1211L1125,1213L1125,1097Z" fill="#7787a7" stroke="#7787a7" stroke-width="1.51"/><path d="M1722,204L1816,173L1703,81Z" fill="#8e526e" stroke="#8e526e" stroke-width="1.51"/><path d="M1821,534L1703,421L1700,525Z" fill="#9aa3c5" stroke="#9aa3c5" stroke-width="1.51"/><path d="M1726,670L1821,534L1700,525Z" fill="#8fa5cc" stroke="#8fa5cc" stroke-width="1.51"/><path d="M1851,630L1821,534L1726,670Z" fill="#849ac0" stroke="#849ac0" stroke-width="1.51"/><path d="M797,1210L895,1125L793,1107Z" fill="#89849b" stroke="#89849b" stroke-width="1.51"/><path d="M1044,1211L1269,1251L1125,1213Z" fill="#7285a6" stroke="#7285a6" stroke-width="1.51"/><path d="M1383,1100L1493,1095L1458,1015Z" fill="#3e6d9b" stroke="#3e6d9b" stroke-width="1.51"/><path d="M1468,1250L1493,1095L1383,1100Z" fill="#3d6a96" stroke="#3d6a96" stroke-width="1.51"/><path d="M1821,534L1835,416L1703,421Z" fill="#9897b4" stroke="#9897b4" stroke-width="1.51"/><path d="M1606,1010L1706,886L1575,882Z" fill="#347bb7" stroke="#347bb7" stroke-width="1.51"/><path d="M1851,785L1851,630L1726,670Z" fill="#6e8fb9" stroke="#6e8fb9" stroke-width="1.51"/><path d="M1493,1095L1606,1010L1458,1015Z" fill="#316ca0" stroke="#316ca0" stroke-width="1.51"/><path d="M352,85L309,218L443,210Z" fill="#cd5144" stroke="#cd5144" stroke-width="1.51"/><path d="M353,295L207,425L329,432Z" fill="#e38670" stroke="#e38670" stroke-width="1.51"/><path d="M211,565L233,635L331,538Z" fill="#df9790" stroke="#df9790" stroke-width="1.51"/><path d="M352,85L443,210L444,89Z" fill="#ca4d43" stroke="#ca4d43" stroke-width="1.51"/><path d="M444,-44L444,89L531,-32Z" fill="#a64641" stroke="#a64641" stroke-width="1.51"/><path d="M1703,81L1689,-10L1602,77Z" fill="#7a4b69" stroke="#7a4b69" stroke-width="1.51"/><path d="M1620,-18L1574,-171L1495,-57Z" fill="#6e506a" stroke="#6e506a" stroke-width="1.51"/><path d="M1796,59L1689,-10L1703,81Z" fill="#734264" stroke="#734264" stroke-width="1.51"/><path d="M649,-171L567,-164L648,-26Z" fill="#af5e55" stroke="#af5e55" stroke-width="1.51"/><path d="M431,-134L444,-44L531,-32Z" fill="#a44440" stroke="#a44440" stroke-width="1.51"/><path d="M445,868L461,980L543,907Z" fill="#a48190" stroke="#a48190" stroke-width="1.51"/><path d="M548,991L557,1124L676,1108Z" fill="#8b6b78" stroke="#8b6b78" stroke-width="1.51"/><path d="M319,886L461,980L445,868Z" fill="#a27686" stroke="#a27686" stroke-width="1.51"/><path d="M444,-44L352,85L444,89Z" fill="#af3f3c" stroke="#af3f3c" stroke-width="1.51"/><path d="M233,635L317,757L321,637Z" fill="#d1938f" stroke="#d1938f" stroke-width="1.51"/><path d="M321,637L317,757L446,629Z" fill="#d69d97" stroke="#d69d97" stroke-width="1.51"/><path d="M671,1253L797,1210L676,1108Z" fill="#8b798a" stroke="#8b798a" stroke-width="1.51"/><path d="M676,1108L797,1210L793,1107Z" fill="#8a7e91" stroke="#8a7e91" stroke-width="1.51"/><path d="M1808,323L1816,173L1722,204Z" fill="#936177" stroke="#936177" stroke-width="1.51"/><path d="M1916,315L1816,173L1808,323Z" fill="#8f6274" stroke="#8f6274" stroke-width="1.51"/><path d="M1690,-127L1574,-171L1620,-18Z" fill="#694866" stroke="#694866" stroke-width="1.51"/><path d="M1486,-140L1574,-171L1373,-177Z" fill="#785a6f" stroke="#785a6f" stroke-width="1.51"/><path d="M1851,785L1726,670L1694,779Z" fill="#6390c0" stroke="#6390c0" stroke-width="1.51"/><path d="M1821,534L1926,443L1835,416Z" fill="#8f8ca6" stroke="#8f8ca6" stroke-width="1.51"/><path d="M671,1253L1269,1251L923,1214Z" fill="#848ca9" stroke="#848ca9" stroke-width="1.51"/><path d="M923,1214L1269,1251L1044,1211Z" fill="#7987a8" stroke="#7987a8" stroke-width="1.51"/><path d="M1125,1213L1269,1251L1257,1105Z" fill="#677fa3" stroke="#677fa3" stroke-width="1.51"/><path d="M418,1101L557,1124L548,991Z" fill="#885e6d" stroke="#885e6d" stroke-width="1.51"/><path d="M1816,173L1796,59L1703,81Z" fill="#844361" stroke="#844361" stroke-width="1.51"/><path d="M1689,-10L1690,-127L1620,-18Z" fill="#674364" stroke="#674364" stroke-width="1.51"/><path d="M1831,883L1851,785L1694,779Z" fill="#467db0" stroke="#467db0" stroke-width="1.51"/><path d="M1606,1010L1735,993L1706,886Z" fill="#286db0" stroke="#286db0" stroke-width="1.51"/><path d="M1493,1095L1597,1097L1606,1010Z" fill="#265f93" stroke="#265f93" stroke-width="1.51"/><path d="M1597,1223L1597,1097L1493,1095Z" fill="#245c8f" stroke="#245c8f" stroke-width="1.51"/><path d="M207,425L331,538L329,432Z" fill="#e69585" stroke="#e69585" stroke-width="1.51"/><path d="M317,757L319,886L445,868Z" fill="#ad8088" stroke="#ad8088" stroke-width="1.51"/><path d="M1269,1251L1365,1241L1257,1105Z" fill="#597aa0" stroke="#597aa0" stroke-width="1.51"/><path d="M186,285L207,425L353,295Z" fill="#db725d" stroke="#db725d" stroke-width="1.51"/><path d="M237,219L353,295L309,218Z" fill="#d25c4c" stroke="#d25c4c" stroke-width="1.51"/><path d="M208,89L309,218L352,85Z" fill="#c03837" stroke="#c03837" stroke-width="1.51"/><path d="M208,89L237,219L309,218Z" fill="#c33f3a" stroke="#c33f3a" stroke-width="1.51"/><path d="M207,425L211,565L331,538Z" fill="#e4958a" stroke="#e4958a" stroke-width="1.51"/><path d="M448,1250L579,1220L557,1124Z" fill="#885f6c" stroke="#885f6c" stroke-width="1.51"/><path d="M223,868L319,886L317,757Z" fill="#a77580" stroke="#a77580" stroke-width="1.51"/><path d="M567,-164L431,-134L531,-32Z" fill="#a74c45" stroke="#a74c45" stroke-width="1.51"/><path d="M444,-44L352,-58L352,85Z" fill="#9d3435" stroke="#9d3435" stroke-width="1.51"/><path d="M1826,-64L1690,-127L1689,-10Z" fill="#623b60" stroke="#623b60" stroke-width="1.51"/><path d="M1831,883L1694,779L1706,886Z" fill="#3b7db6" stroke="#3b7db6" stroke-width="1.51"/><path d="M1835,416L1916,315L1808,323Z" fill="#927788" stroke="#927788" stroke-width="1.51"/><path d="M1930,-21L1826,-64L1796,59Z" fill="#542b4b" stroke="#542b4b" stroke-width="1.51"/><path d="M1851,630L1915,535L1821,534Z" fill="#8694b5" stroke="#8694b5" stroke-width="1.51"/><path d="M1941,635L1915,535L1851,630Z" fill="#7c8bac" stroke="#7c8bac" stroke-width="1.51"/><path d="M1693,1108L1735,993L1606,1010Z" fill="#1f5b98" stroke="#1f5b98" stroke-width="1.51"/><path d="M431,-134L352,-58L444,-44Z" fill="#9f3939" stroke="#9f3939" stroke-width="1.51"/><path d="M1915,535L1926,443L1821,534Z" fill="#8a8da9" stroke="#8a8da9" stroke-width="1.51"/><path d="M1926,443L1916,315L1835,416Z" fill="#8e7a8d" stroke="#8e7a8d" stroke-width="1.51"/><path d="M207,425L101,531L211,565Z" fill="#db8a83" stroke="#db8a83" stroke-width="1.51"/><path d="M237,219L186,285L353,295Z" fill="#d35e4d" stroke="#d35e4d" stroke-width="1.51"/><path d="M89,292L186,285L113,171Z" fill="#bd4941" stroke="#bd4941" stroke-width="1.51"/><path d="M1735,993L1831,883L1706,886Z" fill="#296cab" stroke="#296cab" stroke-width="1.51"/><path d="M1922,763L1941,635L1851,630Z" fill="#6b83a7" stroke="#6b83a7" stroke-width="1.51"/><path d="M579,1220L671,1253L676,1108Z" fill="#8a6f7e" stroke="#8a6f7e" stroke-width="1.51"/><path d="M797,1210L671,1253L923,1214Z" fill="#898197" stroke="#898197" stroke-width="1.51"/><path d="M579,1220L676,1108L557,1124Z" fill="#8a6a78" stroke="#8a6a78" stroke-width="1.51"/><path d="M1269,1251L1468,1250L1365,1241Z" fill="#4c739c" stroke="#4c739c" stroke-width="1.51"/><path d="M1365,1241L1468,1250L1383,1100Z" fill="#456f99" stroke="#456f99" stroke-width="1.51"/><path d="M1597,1097L1693,1108L1606,1010Z" fill="#1f578e" stroke="#1f578e" stroke-width="1.51"/><path d="M418,1101L548,991L461,980Z" fill="#926678" stroke="#926678" stroke-width="1.51"/><path d="M1922,763L1851,630L1851,785Z" fill="#5e81a9" stroke="#5e81a9" stroke-width="1.51"/><path d="M1915,535L2042,563L1926,443Z" fill="#8689a4" stroke="#8689a4" stroke-width="1.51"/><path d="M319,886L322,989L461,980Z" fill="#9a677d" stroke="#9a677d" stroke-width="1.51"/><path d="M223,868L322,989L319,886Z" fill="#996579" stroke="#996579" stroke-width="1.51"/><path d="M197,770L317,757L233,635Z" fill="#c38788" stroke="#c38788" stroke-width="1.51"/><path d="M322,989L418,1101L461,980Z" fill="#8e5a6e" stroke="#8e5a6e" stroke-width="1.51"/><path d="M1597,1223L1693,1108L1597,1097Z" fill="#1f558b" stroke="#1f558b" stroke-width="1.51"/><path d="M1735,993L1845,990L1831,883Z" fill="#1f5e9f" stroke="#1f5e9f" stroke-width="1.51"/><path d="M109,632L233,635L211,565Z" fill="#d38b88" stroke="#d38b88" stroke-width="1.51"/><path d="M109,632L197,770L233,635Z" fill="#c68384" stroke="#c68384" stroke-width="1.51"/><path d="M1920,879L1851,785L1831,883Z" fill="#326a9d" stroke="#326a9d" stroke-width="1.51"/><path d="M1920,879L1922,763L1851,785Z" fill="#406e9c" stroke="#406e9c" stroke-width="1.51"/><path d="M210,-31L208,89L352,85Z" fill="#a2222d" stroke="#a2222d" stroke-width="1.51"/><path d="M1923,83L1796,59L1816,173Z" fill="#7b3854" stroke="#7b3854" stroke-width="1.51"/><path d="M1796,59L1826,-64L1689,-10Z" fill="#5e365a" stroke="#5e365a" stroke-width="1.51"/><path d="M197,770L223,868L317,757Z" fill="#af7880" stroke="#af7880" stroke-width="1.51"/><path d="M352,-58L210,-31L352,85Z" fill="#96262e" stroke="#96262e" stroke-width="1.51"/><path d="M431,-134L332,-130L352,-58Z" fill="#9c3234" stroke="#9c3234" stroke-width="1.51"/><path d="M198,-163L332,-130L431,-134Z" fill="#972930" stroke="#972930" stroke-width="1.51"/><path d="M1916,315L1954,176L1816,173Z" fill="#844e5f" stroke="#844e5f" stroke-width="1.51"/><path d="M2080,301L1954,176L1916,315Z" fill="#855665" stroke="#855665" stroke-width="1.51"/><path d="M2053,416L1916,315L1926,443Z" fill="#8b7687" stroke="#8b7687" stroke-width="1.51"/><path d="M1468,1250L1597,1223L1493,1095Z" fill="#2b6192" stroke="#2b6192" stroke-width="1.51"/><path d="M1954,176L1923,83L1816,173Z" fill="#793a51" stroke="#793a51" stroke-width="1.51"/><path d="M186,285L107,415L207,425Z" fill="#d47162" stroke="#d47162" stroke-width="1.51"/><path d="M89,292L107,415L186,285Z" fill="#c86354" stroke="#c86354" stroke-width="1.51"/><path d="M1804,1136L1735,993L1693,1108Z" fill="#124883" stroke="#124883" stroke-width="1.51"/><path d="M1804,1136L1845,990L1735,993Z" fill="#134b86" stroke="#134b86" stroke-width="1.51"/><path d="M107,415L101,531L207,425Z" fill="#d28177" stroke="#d28177" stroke-width="1.51"/><path d="M197,770L110,766L223,868Z" fill="#a76f7a" stroke="#a76f7a" stroke-width="1.51"/><path d="M1845,990L1920,879L1831,883Z" fill="#225d96" stroke="#225d96" stroke-width="1.51"/><path d="M2060,650L2042,563L1941,635Z" fill="#7787a7" stroke="#7787a7" stroke-width="1.51"/><path d="M101,531L109,632L211,565Z" fill="#cf8987" stroke="#cf8987" stroke-width="1.51"/><path d="M113,171L186,285L237,219Z" fill="#c3433d" stroke="#c3433d" stroke-width="1.51"/><path d="M332,-130L210,-31L352,-58Z" fill="#95252e" stroke="#95252e" stroke-width="1.51"/><path d="M418,1101L448,1250L557,1124Z" fill="#855665" stroke="#855665" stroke-width="1.51"/><path d="M322,989L337,1117L418,1101Z" fill="#80475a" stroke="#80475a" stroke-width="1.51"/><path d="M202,1097L337,1117L322,989Z" fill="#7c3e54" stroke="#7c3e54" stroke-width="1.51"/><path d="M191,1008L322,989L223,868Z" fill="#915571" stroke="#915571" stroke-width="1.51"/><path d="M107,415L3,436L101,531Z" fill="#c47b76" stroke="#c47b76" stroke-width="1.51"/><path d="M113,171L237,219L208,89Z" fill="#ba2e33" stroke="#ba2e33" stroke-width="1.51"/><path d="M86,83L113,171L208,89Z" fill="#a7172b" stroke="#a7172b" stroke-width="1.51"/><path d="M1826,-64L1828,-159L1690,-127Z" fill="#5c3457" stroke="#5c3457" stroke-width="1.51"/><path d="M1690,-127L1828,-159L1574,-171Z" fill="#654063" stroke="#654063" stroke-width="1.51"/><path d="M1918,-173L1828,-159L1826,-64Z" fill="#542a4a" stroke="#542a4a" stroke-width="1.51"/><path d="M2060,650L1941,635L1922,763Z" fill="#6780a3" stroke="#6780a3" stroke-width="1.51"/><path d="M1941,635L2042,563L1915,535Z" fill="#7e8aa9" stroke="#7e8aa9" stroke-width="1.51"/><path d="M1923,83L1930,-21L1796,59Z" fill="#5f2b49" stroke="#5f2b49" stroke-width="1.51"/><path d="M2041,93L1930,-21L1923,83Z" fill="#5e2743" stroke="#5e2743" stroke-width="1.51"/><path d="M2041,93L1923,83L1954,176Z" fill="#733049" stroke="#733049" stroke-width="1.51"/><path d="M109,632L110,766L197,770Z" fill="#b27a80" stroke="#b27a80" stroke-width="1.51"/><path d="M7,673L110,766L109,632Z" fill="#ac787f" stroke="#ac787f" stroke-width="1.51"/><path d="M108,903L110,766L-8,788Z" fill="#8b6273" stroke="#8b6273" stroke-width="1.51"/><path d="M2042,563L2053,416L1926,443Z" fill="#88859c" stroke="#88859c" stroke-width="1.51"/><path d="M329,1235L448,1250L418,1101Z" fill="#804a5b" stroke="#804a5b" stroke-width="1.51"/><path d="M579,1220L448,1250L671,1253Z" fill="#8a6572" stroke="#8a6572" stroke-width="1.51"/><path d="M1845,990L1941,1018L1920,879Z" fill="#164f8a" stroke="#164f8a" stroke-width="1.51"/><path d="M1597,1223L1720,1206L1693,1108Z" fill="#1a5089" stroke="#1a5089" stroke-width="1.51"/><path d="M1837,1255L1720,1206L1597,1223Z" fill="#144b86" stroke="#144b86" stroke-width="1.51"/><path d="M1720,1206L1804,1136L1693,1108Z" fill="#124984" stroke="#124984" stroke-width="1.51"/><path d="M2074,763L2060,650L1922,763Z" fill="#5b7aa0" stroke="#5b7aa0" stroke-width="1.51"/><path d="M2042,563L2060,650L2053,416Z" fill="#848caa" stroke="#848caa" stroke-width="1.51"/><path d="M2074,763L1922,763L2061,858Z" fill="#446e99" stroke="#446e99" stroke-width="1.51"/><path d="M108,903L191,1008L223,868Z" fill="#8e546d" stroke="#8e546d" stroke-width="1.51"/><path d="M337,1117L329,1235L418,1101Z" fill="#7e4557" stroke="#7e4557" stroke-width="1.51"/><path d="M2060,650L2080,301L2053,416Z" fill="#898298" stroke="#898298" stroke-width="1.51"/><path d="M2053,416L2080,301L1916,315Z" fill="#8a6b79" stroke="#8a6b79" stroke-width="1.51"/><path d="M86,-13L86,83L208,89Z" fill="#910d26" stroke="#910d26" stroke-width="1.51"/><path d="M5,184L-14,307L89,292Z" fill="#a94541" stroke="#a94541" stroke-width="1.51"/><path d="M110,766L108,903L223,868Z" fill="#956374" stroke="#956374" stroke-width="1.51"/><path d="M7,673L109,632L-13,545Z" fill="#b17d81" stroke="#b17d81" stroke-width="1.51"/><path d="M2073,184L2041,93L1954,176Z" fill="#78384e" stroke="#78384e" stroke-width="1.51"/><path d="M1930,-21L1918,-173L1826,-64Z" fill="#502544" stroke="#502544" stroke-width="1.51"/><path d="M1924,1139L1941,1018L1845,990Z" fill="#0a396e" stroke="#0a396e" stroke-width="1.51"/><path d="M2080,301L2073,184L1954,176Z" fill="#80495a" stroke="#80495a" stroke-width="1.51"/><path d="M-14,307L3,436L107,415Z" fill="#b86960" stroke="#b86960" stroke-width="1.51"/><path d="M-14,307L107,415L89,292Z" fill="#bb6054" stroke="#bb6054" stroke-width="1.51"/><path d="M122,-177L198,-163L567,-164Z" fill="#95252e" stroke="#95252e" stroke-width="1.51"/><path d="M567,-164L198,-163L431,-134Z" fill="#9e3737" stroke="#9e3737" stroke-width="1.51"/><path d="M332,-130L198,-163L210,-31Z" fill="#911a2a" stroke="#911a2a" stroke-width="1.51"/><path d="M210,-31L86,-13L208,89Z" fill="#8c0b26" stroke="#8c0b26" stroke-width="1.51"/><path d="M2060,650L2074,763L2080,301Z" fill="#7f8aa9" stroke="#7f8aa9" stroke-width="1.51"/><path d="M2061,858L1922,763L1920,879Z" fill="#356694" stroke="#356694" stroke-width="1.51"/><path d="M1828,-159L1918,-173L1574,-171Z" fill="#5d3659" stroke="#5d3659" stroke-width="1.51"/><path d="M1574,-171L1918,-173L1373,-177Z" fill="#6a4967" stroke="#6a4967" stroke-width="1.51"/><path d="M1373,-177L1918,-173L1250,-178Z" fill="#73566d" stroke="#73566d" stroke-width="1.51"/><path d="M2041,-167L1918,-173L1930,-21Z" fill="#4c213f" stroke="#4c213f" stroke-width="1.51"/><path d="M202,1097L322,989L191,1008Z" fill="#81415b" stroke="#81415b" stroke-width="1.51"/><path d="M227,1206L329,1235L337,1117Z" fill="#7a3c51" stroke="#7a3c51" stroke-width="1.51"/><path d="M92,1117L202,1097L191,1008Z" fill="#6d2d47" stroke="#6d2d47" stroke-width="1.51"/><path d="M-13,545L109,632L101,531Z" fill="#bf8384" stroke="#bf8384" stroke-width="1.51"/><path d="M3,436L-13,545L101,531Z" fill="#bb7d7c" stroke="#bb7d7c" stroke-width="1.51"/><path d="M122,-177L86,-13L210,-31Z" fill="#820724" stroke="#820724" stroke-width="1.51"/><path d="M5,184L89,292L113,171Z" fill="#ab3937" stroke="#ab3937" stroke-width="1.51"/><path d="M3,436L-126,443L-13,545Z" fill="#b47775" stroke="#b47775" stroke-width="1.51"/><path d="M5,184L113,171L86,83Z" fill="#9f222d" stroke="#9f222d" stroke-width="1.51"/><path d="M2039,992L2061,858L1920,879Z" fill="#20568c" stroke="#20568c" stroke-width="1.51"/><path d="M-10,81L5,184L86,83Z" fill="#921127" stroke="#921127" stroke-width="1.51"/><path d="M1941,1018L2039,992L1920,879Z" fill="#154c87" stroke="#154c87" stroke-width="1.51"/><path d="M1804,1136L1924,1139L1845,990Z" fill="#09386d" stroke="#09386d" stroke-width="1.51"/><path d="M1837,1255L1924,1139L1804,1136Z" fill="#09396d" stroke="#09396d" stroke-width="1.51"/><path d="M108,903L91,1002L191,1008Z" fill="#7e4667" stroke="#7e4667" stroke-width="1.51"/><path d="M202,1097L227,1206L337,1117Z" fill="#76364d" stroke="#76364d" stroke-width="1.51"/><path d="M-32,983L91,1002L108,903Z" fill="#6f4265" stroke="#6f4265" stroke-width="1.51"/><path d="M-107,749L-8,788L7,673Z" fill="#906c78" stroke="#906c78" stroke-width="1.51"/><path d="M7,673L-8,788L110,766Z" fill="#976f79" stroke="#976f79" stroke-width="1.51"/><path d="M1720,1206L1837,1255L1804,1136Z" fill="#0e427a" stroke="#0e427a" stroke-width="1.51"/><path d="M1468,1250L1837,1255L1597,1223Z" fill="#1e558b" stroke="#1e558b" stroke-width="1.51"/><path d="M1269,1251L1837,1255L1468,1250Z" fill="#2a6192" stroke="#2a6192" stroke-width="1.51"/><path d="M671,1253L1837,1255L1269,1251Z" fill="#607ca1" stroke="#607ca1" stroke-width="1.51"/><path d="M104,1206L227,1206L202,1097Z" fill="#6f2c46" stroke="#6f2c46" stroke-width="1.51"/><path d="M2065,1142L1941,1018L1924,1139Z" fill="#053061" stroke="#053061" stroke-width="1.51"/><path d="M2065,1142L2039,992L1941,1018Z" fill="#08376b" stroke="#08376b" stroke-width="1.51"/><path d="M86,-13L-10,81L86,83Z" fill="#820723" stroke="#820723" stroke-width="1.51"/><path d="M198,-163L122,-177L210,-31Z" fill="#890925" stroke="#890925" stroke-width="1.51"/><path d="M649,-171L122,-177L567,-164Z" fill="#a2403d" stroke="#a2403d" stroke-width="1.51"/><path d="M1250,-178L122,-177L649,-171Z" fill="#b1655d" stroke="#b1655d" stroke-width="1.51"/><path d="M-5,-27L-10,81L86,-13Z" fill="#700221" stroke="#700221" stroke-width="1.51"/><path d="M-127,283L-126,443L-14,307Z" fill="#ae5c53" stroke="#ae5c53" stroke-width="1.51"/><path d="M2041,93L2080,-41L1930,-21Z" fill="#502240" stroke="#502240" stroke-width="1.51"/><path d="M2073,184L2080,-41L2041,93Z" fill="#672a45" stroke="#672a45" stroke-width="1.51"/><path d="M2080,301L2080,-41L2073,184Z" fill="#77374e" stroke="#77374e" stroke-width="1.51"/><path d="M-14,-145L-5,-27L86,-13Z" fill="#6b0120" stroke="#6b0120" stroke-width="1.51"/><path d="M2080,-41L2041,-167L1930,-21Z" fill="#4c213f" stroke="#4c213f" stroke-width="1.51"/><path d="M91,1002L92,1117L191,1008Z" fill="#6d3350" stroke="#6d3350" stroke-width="1.51"/><path d="M-44,1102L92,1117L91,1002Z" fill="#562643" stroke="#562643" stroke-width="1.51"/><path d="M1837,1255L1933,1240L1924,1139Z" fill="#063365" stroke="#063365" stroke-width="1.51"/><path d="M-8,788L-36,902L108,903Z" fill="#74556c" stroke="#74556c" stroke-width="1.51"/><path d="M-124,873L-36,902L-8,788Z" fill="#72556c" stroke="#72556c" stroke-width="1.51"/><path d="M-107,749L7,673L-145,631Z" fill="#9c737c" stroke="#9c737c" stroke-width="1.51"/><path d="M-126,443L3,436L-14,307Z" fill="#b26962" stroke="#b26962" stroke-width="1.51"/><path d="M-127,283L-14,307L5,184Z" fill="#a3423f" stroke="#a3423f" stroke-width="1.51"/><path d="M-127,283L5,184L-108,171Z" fill="#9d3335" stroke="#9d3335" stroke-width="1.51"/><path d="M-108,171L5,184L-10,81Z" fill="#921d2a" stroke="#921d2a" stroke-width="1.51"/><path d="M-123,69L-108,171L-10,81Z" fill="#8b0a25" stroke="#8b0a25" stroke-width="1.51"/><path d="M-145,631L7,673L-13,545Z" fill="#a97a80" stroke="#a97a80" stroke-width="1.51"/><path d="M-127,283L-145,553L-126,443Z" fill="#b4706b" stroke="#b4706b" stroke-width="1.51"/><path d="M-126,443L-145,553L-13,545Z" fill="#b57c7d" stroke="#b57c7d" stroke-width="1.51"/><path d="M-36,902L-32,983L108,903Z" fill="#6b4666" stroke="#6b4666" stroke-width="1.51"/><path d="M-112,983L-32,983L-36,902Z" fill="#643f63" stroke="#643f63" stroke-width="1.51"/><path d="M-13,1236L104,1206L92,1117Z" fill="#582542" stroke="#582542" stroke-width="1.51"/><path d="M92,1117L104,1206L202,1097Z" fill="#662a44" stroke="#662a44" stroke-width="1.51"/><path d="M227,1206L104,1206L329,1235Z" fill="#74314a" stroke="#74314a" stroke-width="1.51"/><path d="M-107,749L-124,873L-8,788Z" fill="#7f6072" stroke="#7f6072" stroke-width="1.51"/><path d="M-145,553L-145,631L-13,545Z" fill="#af7d81" stroke="#af7d81" stroke-width="1.51"/><path d="M1933,1240L2065,1142L1924,1139Z" fill="#053061" stroke="#053061" stroke-width="1.51"/><path d="M2039,992L2065,1142L2061,858Z" fill="#0f447d" stroke="#0f447d" stroke-width="1.51"/><path d="M2061,858L2065,1142L2074,763Z" fill="#1d548b" stroke="#1d548b" stroke-width="1.51"/><path d="M-5,-27L-123,69L-10,81Z" fill="#750322" stroke="#750322" stroke-width="1.51"/><path d="M122,-177L-14,-145L86,-13Z" fill="#730321" stroke="#730321" stroke-width="1.51"/><path d="M-155,-44L-123,69L-5,-27Z" fill="#67001f" stroke="#67001f" stroke-width="1.51"/><path d="M-108,171L-123,69L-127,283Z" fill="#96272f" stroke="#96272f" stroke-width="1.51"/><path d="M-127,283L-155,-44L-145,553Z" fill="#a44440" stroke="#a44440" stroke-width="1.51"/><path d="M-32,983L-44,1102L91,1002Z" fill="#582e4f" stroke="#582e4f" stroke-width="1.51"/><path d="M-145,631L-124,873L-107,749Z" fill="#8d6a78" stroke="#8d6a78" stroke-width="1.51"/><path d="M-112,983L-44,1102L-32,983Z" fill="#583051" stroke="#583051" stroke-width="1.51"/><path d="M-124,873L-112,983L-36,902Z" fill="#694866" stroke="#694866" stroke-width="1.51"/><path d="M1933,1240L2076,1231L2065,1142Z" fill="#053061" stroke="#053061" stroke-width="1.51"/><path d="M2065,1142L2076,1231L2074,763Z" fill="#09386c" stroke="#09386c" stroke-width="1.51"/><path d="M2074,763L2076,1231L2080,301Z" fill="#4e749d" stroke="#4e749d" stroke-width="1.51"/><path d="M1837,1255L2076,1231L1933,1240Z" fill="#053061" stroke="#053061" stroke-width="1.51"/><path d="M-14,-145L-155,-44L-5,-27Z" fill="#67001f" stroke="#67001f" stroke-width="1.51"/><path d="M-123,69L-155,-44L-127,283Z" fill="#8a0a25" stroke="#8a0a25" stroke-width="1.51"/><path d="M-145,553L-155,-44L-145,631Z" fill="#b1655d" stroke="#b1655d" stroke-width="1.51"/><path d="M-145,1119L-13,1236L-44,1102Z" fill="#4c213f" stroke="#4c213f" stroke-width="1.51"/><path d="M-44,1102L-13,1236L92,1117Z" fill="#4e2240" stroke="#4e2240" stroke-width="1.51"/><path d="M104,1206L-13,1236L329,1235Z" fill="#672a45" stroke="#672a45" stroke-width="1.51"/><path d="M329,1235L-13,1236L448,1250Z" fill="#76364d" stroke="#76364d" stroke-width="1.51"/><path d="M-14,-145L-150,-164L-155,-44Z" fill="#67001f" stroke="#67001f" stroke-width="1.51"/><path d="M122,-177L-150,-164L-14,-145Z" fill="#67001f" stroke="#67001f" stroke-width="1.51"/><path d="M-112,983L-145,1119L-44,1102Z" fill="#4f2443" stroke="#4f2443" stroke-width="1.51"/><path d="M-124,873L-145,1119L-112,983Z" fill="#5e375b" stroke="#5e375b" stroke-width="1.51"/><path d="M-145,631L-145,1119L-124,873Z" fill="#6e516a" stroke="#6e516a" stroke-width="1.51"/><path d="M-149,1248L-145,1119L-145,631Z" fill="#5d3558" stroke="#5d3558" stroke-width="1.51"/><path d="M-145,1119L-149,1248L-13,1236Z" fill="#4c213f" stroke="#4c213f" stroke-width="1.51"/><path d="M-13,1236L-149,1248L448,1250Z" fill="#5f2743" stroke="#5f2743" stroke-width="1.51"/><path d="M448,1250L-149,1248L671,1253Z" fill="#7b4053" stroke="#7b4053" stroke-width="1.51"/><path d="M-155,-44L-149,1248L-145,631Z" fill="#aa7a80" stroke="#aa7a80" stroke-width="1.51"/></svg>