<svg xmlns="http://www.w3.org/2000/svg" width="375" height="812"><path d="M182,390L139,385L148,425Z" fill="#faeae1" stroke="#faeae1" stroke-width="1.51"/><path d="M148,425L191,438L182,390Z" fill="#f6f0ed" stroke="#f6f0ed" stroke-width="1.51"/><path d="M139,385L92,419L148,425Z" fill="#f9d7c8" stroke="#f9d7c8" stroke-width="1.51"/><path d="M148,425L129,470L191,438Z" fill="#f1e7e1" stroke="#f1e7e1" stroke-width="1.51"/><path d="M92,419L129,470L148,425Z" fill="#f3d2c4" stroke="#f3d2c4" stroke-width="1.51"/><path d="M182,390L135,328L139,385Z" fill="#fce3d5" stroke="#fce3d5" stroke-width="1.51"/><path d="M139,385L81,381L92,419Z" fill="#f7c4b2" stroke="#f7c4b2" stroke-width="1.51"/><path d="M90,339L81,381L139,385Z" fill="#f7bfaa" stroke="#f7bfaa" stroke-width="1.51"/><path d="M191,438L237,427L182,390Z" fill="#ecf1f5" stroke="#ecf1f5" stroke-width="1.51"/><path d="M182,390L194,322L135,328Z" fill="#fce6da" stroke="#fce6da" stroke-width="1.51"/><path d="M244,476L237,427L191,438Z" fill="#dbe9f2" stroke="#dbe9f2" stroke-width="1.51"/><path d="M233,336L194,322L182,390Z" fill="#f2eae4" stroke="#f2eae4" stroke-width="1.51"/><path d="M129,470L192,482L191,438Z" fill="#eceaea" stroke="#eceaea" stroke-width="1.51"/><path d="M237,427L244,374L182,390Z" fill="#e7edf2" stroke="#e7edf2" stroke-width="1.51"/><path d="M135,328L90,339L139,385Z" fill="#fbcbb4" stroke="#fbcbb4" stroke-width="1.51"/><path d="M244,374L233,336L182,390Z" fill="#e9e9e9" stroke="#e9e9e9" stroke-width="1.51"/><path d="M129,470L190,522L192,482Z" fill="#e5e7e8" stroke="#e5e7e8" stroke-width="1.51"/><path d="M92,419L93,488L129,470Z" fill="#ecc1b3" stroke="#ecc1b3" stroke-width="1.51"/><path d="M48,468L93,488L92,419Z" fill="#e5a99f" stroke="#e5a99f" stroke-width="1.51"/><path d="M194,322L133,293L135,328Z" fill="#fdd9c5" stroke="#fdd9c5" stroke-width="1.51"/><path d="M135,328L91,288L90,339Z" fill="#f7b79c" stroke="#f7b79c" stroke-width="1.51"/><path d="M178,274L133,293L194,322Z" fill="#fcd8c6" stroke="#fcd8c6" stroke-width="1.51"/><path d="M192,482L244,476L191,438Z" fill="#deebf3" stroke="#deebf3" stroke-width="1.51"/><path d="M237,427L293,390L244,374Z" fill="#cadee9" stroke="#cadee9" stroke-width="1.51"/><path d="M81,381L37,422L92,419Z" fill="#eca89c" stroke="#eca89c" stroke-width="1.51"/><path d="M32,384L37,422L81,381Z" fill="#e4978e" stroke="#e4978e" stroke-width="1.51"/><path d="M192,482L190,522L244,476Z" fill="#d7e8f1" stroke="#d7e8f1" stroke-width="1.51"/><path d="M128,532L190,522L129,470Z" fill="#e1dcd8" stroke="#e1dcd8" stroke-width="1.51"/><path d="M46,325L32,384L81,381Z" fill="#e59487" stroke="#e59487" stroke-width="1.51"/><path d="M46,325L81,381L90,339Z" fill="#eda08d" stroke="#eda08d" stroke-width="1.51"/><path d="M231,282L178,274L194,322Z" fill="#f4dbcf" stroke="#f4dbcf" stroke-width="1.51"/><path d="M37,422L48,468L92,419Z" fill="#e29d94" stroke="#e29d94" stroke-width="1.51"/><path d="M133,293L91,288L135,328Z" fill="#f9bda1" stroke="#f9bda1" stroke-width="1.51"/><path d="M140,238L91,288L133,293Z" fill="#f8b696" stroke="#f8b696" stroke-width="1.51"/><path d="M93,488L128,532L129,470Z" fill="#e5c6bb" stroke="#e5c6bb" stroke-width="1.51"/><path d="M48,468L92,517L93,488Z" fill="#dda59d" stroke="#dda59d" stroke-width="1.51"/><path d="M244,476L290,428L237,427Z" fill="#c2dceb" stroke="#c2dceb" stroke-width="1.51"/><path d="M244,374L276,324L233,336Z" fill="#d4d9dc" stroke="#d4d9dc" stroke-width="1.51"/><path d="M92,517L128,532L93,488Z" fill="#deb9af" stroke="#deb9af" stroke-width="1.51"/><path d="M290,428L293,390L237,427Z" fill="#bad5e6" stroke="#bad5e6" stroke-width="1.51"/><path d="M233,336L231,282L194,322Z" fill="#ecded7" stroke="#ecded7" stroke-width="1.51"/><path d="M91,288L46,325L90,339Z" fill="#ed9c85" stroke="#ed9c85" stroke-width="1.51"/><path d="M276,324L231,282L233,336Z" fill="#d8d3d2" stroke="#d8d3d2" stroke-width="1.51"/><path d="M293,390L276,324L244,374Z" fill="#c2d0db" stroke="#c2d0db" stroke-width="1.51"/><path d="M244,476L275,488L290,428Z" fill="#b2d2e6" stroke="#b2d2e6" stroke-width="1.51"/><path d="M245,531L275,488L244,476Z" fill="#b5d6e8" stroke="#b5d6e8" stroke-width="1.51"/><path d="M178,274L140,238L133,293Z" fill="#fbc8af" stroke="#fbc8af" stroke-width="1.51"/><path d="M231,282L176,247L178,274Z" fill="#f7d4c5" stroke="#f7d4c5" stroke-width="1.51"/><path d="M230,570L245,531L190,522Z" fill="#bedbeb" stroke="#bedbeb" stroke-width="1.51"/><path d="M190,522L245,531L244,476Z" fill="#c8e0ed" stroke="#c8e0ed" stroke-width="1.51"/><path d="M32,384L-11,423L37,422Z" fill="#ca8886" stroke="#ca8886" stroke-width="1.51"/><path d="M37,422L-3,474L48,468Z" fill="#ca8786" stroke="#ca8786" stroke-width="1.51"/><path d="M46,325L0,372L32,384Z" fill="#d2837b" stroke="#d2837b" stroke-width="1.51"/><path d="M176,247L140,238L178,274Z" fill="#fac8b1" stroke="#fac8b1" stroke-width="1.51"/><path d="M91,288L35,284L46,325Z" fill="#e48974" stroke="#e48974" stroke-width="1.51"/><path d="M293,390L337,370L276,324Z" fill="#a9bcd0" stroke="#a9bcd0" stroke-width="1.51"/><path d="M290,428L328,419L293,390Z" fill="#a2c1dc" stroke="#a2c1dc" stroke-width="1.51"/><path d="M328,486L328,419L290,428Z" fill="#96b5d7" stroke="#96b5d7" stroke-width="1.51"/><path d="M328,486L290,428L275,488Z" fill="#97bfdc" stroke="#97bfdc" stroke-width="1.51"/><path d="M46,325L-12,334L0,372Z" fill="#c17a74" stroke="#c17a74" stroke-width="1.51"/><path d="M50,227L35,284L91,288Z" fill="#e27e68" stroke="#e27e68" stroke-width="1.51"/><path d="M0,372L-11,423L32,384Z" fill="#bc8080" stroke="#bc8080" stroke-width="1.51"/><path d="M48,468L43,536L92,517Z" fill="#d39692" stroke="#d39692" stroke-width="1.51"/><path d="M128,532L148,577L190,522Z" fill="#d4d7d9" stroke="#d4d7d9" stroke-width="1.51"/><path d="M99,573L148,577L128,532Z" fill="#d0c0bd" stroke="#d0c0bd" stroke-width="1.51"/><path d="M99,573L128,532L92,517Z" fill="#d5b6ae" stroke="#d5b6ae" stroke-width="1.51"/><path d="M-11,423L-3,474L37,422Z" fill="#b78083" stroke="#b78083" stroke-width="1.51"/><path d="M-5,524L43,536L48,468Z" fill="#bf8183" stroke="#bf8183" stroke-width="1.51"/><path d="M231,282L245,235L176,247Z" fill="#eccbbd" stroke="#eccbbd" stroke-width="1.51"/><path d="M276,324L290,277L231,282Z" fill="#cac4c5" stroke="#cac4c5" stroke-width="1.51"/><path d="M337,279L290,277L276,324Z" fill="#aeacb8" stroke="#aeacb8" stroke-width="1.51"/><path d="M328,419L337,370L293,390Z" fill="#a0b4d3" stroke="#a0b4d3" stroke-width="1.51"/><path d="M245,531L292,525L275,488Z" fill="#a0cae1" stroke="#a0cae1" stroke-width="1.51"/><path d="M291,566L292,525L245,531Z" fill="#91c1dc" stroke="#91c1dc" stroke-width="1.51"/><path d="M52,567L99,573L92,517Z" fill="#cb9d9a" stroke="#cb9d9a" stroke-width="1.51"/><path d="M140,238L91,232L91,288Z" fill="#f3a482" stroke="#f3a482" stroke-width="1.51"/><path d="M189,587L230,570L190,522Z" fill="#c1dcea" stroke="#c1dcea" stroke-width="1.51"/><path d="M-12,294L-12,334L46,325Z" fill="#bc736b" stroke="#bc736b" stroke-width="1.51"/><path d="M-52,376L-47,423L-11,423Z" fill="#b47f82" stroke="#b47f82" stroke-width="1.51"/><path d="M290,277L245,235L231,282Z" fill="#d2c0ba" stroke="#d2c0ba" stroke-width="1.51"/><path d="M176,247L176,188L140,238Z" fill="#f7bda6" stroke="#f7bda6" stroke-width="1.51"/><path d="M140,238L85,194L91,232Z" fill="#ee9575" stroke="#ee9575" stroke-width="1.51"/><path d="M192,620L189,587L139,627Z" fill="#b8cbdb" stroke="#b8cbdb" stroke-width="1.51"/><path d="M148,577L189,587L190,522Z" fill="#cbdae4" stroke="#cbdae4" stroke-width="1.51"/><path d="M292,525L328,486L275,488Z" fill="#8dbad9" stroke="#8dbad9" stroke-width="1.51"/><path d="M328,419L376,390L337,370Z" fill="#94a1c3" stroke="#94a1c3" stroke-width="1.51"/><path d="M337,370L342,341L276,324Z" fill="#a5aec6" stroke="#a5aec6" stroke-width="1.51"/><path d="M375,339L342,341L337,370Z" fill="#9697b3" stroke="#9697b3" stroke-width="1.51"/><path d="M139,627L189,587L148,577Z" fill="#c0cad4" stroke="#c0cad4" stroke-width="1.51"/><path d="M43,536L52,567L92,517Z" fill="#c9918f" stroke="#c9918f" stroke-width="1.51"/><path d="M-2,566L52,567L43,536Z" fill="#b37a7f" stroke="#b37a7f" stroke-width="1.51"/><path d="M35,284L-12,294L46,325Z" fill="#cb7467" stroke="#cb7467" stroke-width="1.51"/><path d="M3,224L-12,294L35,284Z" fill="#b96358" stroke="#b96358" stroke-width="1.51"/><path d="M-3,474L-5,524L48,468Z" fill="#b47d82" stroke="#b47d82" stroke-width="1.51"/><path d="M-61,480L-5,524L-3,474Z" fill="#a3777f" stroke="#a3777f" stroke-width="1.51"/><path d="M91,232L50,227L91,288Z" fill="#e7876a" stroke="#e7876a" stroke-width="1.51"/><path d="M85,194L50,227L91,232Z" fill="#e1785f" stroke="#e1785f" stroke-width="1.51"/><path d="M-11,423L-47,423L-3,474Z" fill="#ae7c81" stroke="#ae7c81" stroke-width="1.51"/><path d="M-52,376L-11,423L0,372Z" fill="#b57d7e" stroke="#b57d7e" stroke-width="1.51"/><path d="M-52,376L0,372L-12,334Z" fill="#b47876" stroke="#b47876" stroke-width="1.51"/><path d="M292,525L332,525L328,486Z" fill="#80abd2" stroke="#80abd2" stroke-width="1.51"/><path d="M230,570L291,566L245,531Z" fill="#9ecae1" stroke="#9ecae1" stroke-width="1.51"/><path d="M281,617L291,566L230,570Z" fill="#87bcda" stroke="#87bcda" stroke-width="1.51"/><path d="M-45,324L-52,376L-12,334Z" fill="#b47572" stroke="#b47572" stroke-width="1.51"/><path d="M291,566L332,525L292,525Z" fill="#79aed3" stroke="#79aed3" stroke-width="1.51"/><path d="M375,428L376,390L328,419Z" fill="#8b98ba" stroke="#8b98ba" stroke-width="1.51"/><path d="M228,185L176,188L176,247Z" fill="#f2bdad" stroke="#f2bdad" stroke-width="1.51"/><path d="M245,235L228,185L176,247Z" fill="#eabeb2" stroke="#eabeb2" stroke-width="1.51"/><path d="M290,277L288,224L245,235Z" fill="#c4aeac" stroke="#c4aeac" stroke-width="1.51"/><path d="M342,341L337,279L276,324Z" fill="#a7a7bc" stroke="#a7a7bc" stroke-width="1.51"/><path d="M375,428L328,419L328,486Z" fill="#8ca2c9" stroke="#8ca2c9" stroke-width="1.51"/><path d="M342,341L375,339L337,279Z" fill="#9891aa" stroke="#9891aa" stroke-width="1.51"/><path d="M377,486L375,428L328,486Z" fill="#7e93b7" stroke="#7e93b7" stroke-width="1.51"/><path d="M-12,294L-45,324L-12,334Z" fill="#b36f6a" stroke="#b36f6a" stroke-width="1.51"/><path d="M-61,274L-45,324L-12,294Z" fill="#b26962" stroke="#b26962" stroke-width="1.51"/><path d="M337,279L288,224L290,277Z" fill="#ad9fa9" stroke="#ad9fa9" stroke-width="1.51"/><path d="M139,175L85,194L140,238Z" fill="#ef9a7c" stroke="#ef9a7c" stroke-width="1.51"/><path d="M189,587L225,616L230,570Z" fill="#afd0e4" stroke="#afd0e4" stroke-width="1.51"/><path d="M139,627L148,577L99,573Z" fill="#c4b9bb" stroke="#c4b9bb" stroke-width="1.51"/><path d="M192,620L225,616L189,587Z" fill="#aecde3" stroke="#aecde3" stroke-width="1.51"/><path d="M376,390L375,339L337,370Z" fill="#8f90ac" stroke="#8f90ac" stroke-width="1.51"/><path d="M91,618L139,627L99,573Z" fill="#bfa7a8" stroke="#bfa7a8" stroke-width="1.51"/><path d="M281,666L281,617L225,616Z" fill="#76b1d4" stroke="#76b1d4" stroke-width="1.51"/><path d="M52,567L91,618L99,573Z" fill="#bf9595" stroke="#bf9595" stroke-width="1.51"/><path d="M52,627L91,618L52,567Z" fill="#b48489" stroke="#b48489" stroke-width="1.51"/><path d="M288,224L228,185L245,235Z" fill="#d0aea8" stroke="#d0aea8" stroke-width="1.51"/><path d="M146,149L139,175L176,188Z" fill="#efa38d" stroke="#efa38d" stroke-width="1.51"/><path d="M176,188L139,175L140,238Z" fill="#f4af96" stroke="#f4af96" stroke-width="1.51"/><path d="M-5,524L-2,566L43,536Z" fill="#a1737c" stroke="#a1737c" stroke-width="1.51"/><path d="M-63,534L-2,566L-5,524Z" fill="#946e7a" stroke="#946e7a" stroke-width="1.51"/><path d="M-47,423L-61,480L-3,474Z" fill="#aa7a80" stroke="#aa7a80" stroke-width="1.51"/><path d="M-52,376L-61,480L-47,423Z" fill="#b17d81" stroke="#b17d81" stroke-width="1.51"/><path d="M332,525L377,486L328,486Z" fill="#7b9ac4" stroke="#7b9ac4" stroke-width="1.51"/><path d="M375,428L423,392L376,390Z" fill="#848ca9" stroke="#848ca9" stroke-width="1.51"/><path d="M374,534L377,486L332,525Z" fill="#6d8ab2" stroke="#6d8ab2" stroke-width="1.51"/><path d="M85,194L41,197L50,227Z" fill="#d86753" stroke="#d86753" stroke-width="1.51"/><path d="M50,227L3,224L35,284Z" fill="#cc6453" stroke="#cc6453" stroke-width="1.51"/><path d="M39,138L41,197L85,194Z" fill="#d05648" stroke="#d05648" stroke-width="1.51"/><path d="M41,197L3,224L50,227Z" fill="#c9584a" stroke="#c9584a" stroke-width="1.51"/><path d="M291,566L327,587L332,525Z" fill="#6ca3cd" stroke="#6ca3cd" stroke-width="1.51"/><path d="M225,616L281,617L230,570Z" fill="#93c2dd" stroke="#93c2dd" stroke-width="1.51"/><path d="M226,670L225,616L192,620Z" fill="#9cc2dd" stroke="#9cc2dd" stroke-width="1.51"/><path d="M288,224L295,193L228,185Z" fill="#c29f9e" stroke="#c29f9e" stroke-width="1.51"/><path d="M342,224L295,193L288,224Z" fill="#aa8c97" stroke="#aa8c97" stroke-width="1.51"/><path d="M342,224L288,224L337,279Z" fill="#a78e9c" stroke="#a78e9c" stroke-width="1.51"/><path d="M98,665L147,669L139,627Z" fill="#aea6b1" stroke="#aea6b1" stroke-width="1.51"/><path d="M-2,623L52,627L52,567Z" fill="#a56e79" stroke="#a56e79" stroke-width="1.51"/><path d="M281,617L327,587L291,566Z" fill="#64a5cd" stroke="#64a5cd" stroke-width="1.51"/><path d="M327,587L374,534L332,525Z" fill="#6792c0" stroke="#6792c0" stroke-width="1.51"/><path d="M139,175L91,139L85,194Z" fill="#e47f64" stroke="#e47f64" stroke-width="1.51"/><path d="M189,146L146,149L176,188Z" fill="#eea594" stroke="#eea594" stroke-width="1.51"/><path d="M189,146L176,188L228,185Z" fill="#ebaea1" stroke="#ebaea1" stroke-width="1.51"/><path d="M-61,241L-61,274L-12,294Z" fill="#af6058" stroke="#af6058" stroke-width="1.51"/><path d="M-45,324L-61,274L-52,376Z" fill="#b4726d" stroke="#b4726d" stroke-width="1.51"/><path d="M-52,376L-61,274L-61,480Z" fill="#b57a7b" stroke="#b57a7b" stroke-width="1.51"/><path d="M375,339L384,282L337,279Z" fill="#907f94" stroke="#907f94" stroke-width="1.51"/><path d="M423,343L384,282L375,339Z" fill="#8a7f92" stroke="#8a7f92" stroke-width="1.51"/><path d="M423,343L375,339L376,390Z" fill="#88859c" stroke="#88859c" stroke-width="1.51"/><path d="M371,240L342,224L337,279Z" fill="#9a7c8e" stroke="#9a7c8e" stroke-width="1.51"/><path d="M232,148L189,146L228,185Z" fill="#e2a59c" stroke="#e2a59c" stroke-width="1.51"/><path d="M-2,566L-2,623L52,567Z" fill="#986c78" stroke="#986c78" stroke-width="1.51"/><path d="M-61,480L-63,534L-5,524Z" fill="#9d737c" stroke="#9d737c" stroke-width="1.51"/><path d="M-61,274L-63,534L-61,480Z" fill="#b07d81" stroke="#b07d81" stroke-width="1.51"/><path d="M274,138L228,185L295,193Z" fill="#c39796" stroke="#c39796" stroke-width="1.51"/><path d="M274,138L232,148L228,185Z" fill="#d09a96" stroke="#d09a96" stroke-width="1.51"/><path d="M429,431L423,392L375,428Z" fill="#828ba9" stroke="#828ba9" stroke-width="1.51"/><path d="M429,431L375,428L377,486Z" fill="#7a88a8" stroke="#7a88a8" stroke-width="1.51"/><path d="M337,146L274,138L295,193Z" fill="#a67b86" stroke="#a67b86" stroke-width="1.51"/><path d="M384,282L371,240L337,279Z" fill="#927787" stroke="#927787" stroke-width="1.51"/><path d="M432,227L371,240L384,282Z" fill="#8a6976" stroke="#8a6976" stroke-width="1.51"/><path d="M139,627L147,669L192,620Z" fill="#afbdce" stroke="#afbdce" stroke-width="1.51"/><path d="M98,665L139,627L91,618Z" fill="#b39ea3" stroke="#b39ea3" stroke-width="1.51"/><path d="M41,197L-5,188L3,224Z" fill="#b34b43" stroke="#b34b43" stroke-width="1.51"/><path d="M3,224L-61,241L-12,294Z" fill="#ae5a51" stroke="#ae5a51" stroke-width="1.51"/><path d="M39,138L-5,188L41,197Z" fill="#ba433d" stroke="#ba433d" stroke-width="1.51"/><path d="M147,669L190,670L192,620Z" fill="#a7bfd6" stroke="#a7bfd6" stroke-width="1.51"/><path d="M34,684L98,665L52,627Z" fill="#a0717f" stroke="#a0717f" stroke-width="1.51"/><path d="M52,627L98,665L91,618Z" fill="#ad858d" stroke="#ad858d" stroke-width="1.51"/><path d="M423,392L423,343L376,390Z" fill="#8787a1" stroke="#8787a1" stroke-width="1.51"/><path d="M187,98L146,149L189,146Z" fill="#e89c8e" stroke="#e89c8e" stroke-width="1.51"/><path d="M141,84L91,139L146,149Z" fill="#e17f69" stroke="#e17f69" stroke-width="1.51"/><path d="M146,149L91,139L139,175Z" fill="#e78970" stroke="#e78970" stroke-width="1.51"/><path d="M423,392L429,431L423,343Z" fill="#868aa5" stroke="#868aa5" stroke-width="1.51"/><path d="M437,483L429,431L377,486Z" fill="#7687a7" stroke="#7687a7" stroke-width="1.51"/><path d="M-61,274L-65,-12L-63,534Z" fill="#af5e56" stroke="#af5e56" stroke-width="1.51"/><path d="M-53,194L-61,241L3,224Z" fill="#a84d46" stroke="#a84d46" stroke-width="1.51"/><path d="M-54,579L-2,623L-2,566Z" fill="#856474" stroke="#856474" stroke-width="1.51"/><path d="M190,670L226,670L192,620Z" fill="#9cbfdb" stroke="#9cbfdb" stroke-width="1.51"/><path d="M378,633L388,567L327,587Z" fill="#4977a5" stroke="#4977a5" stroke-width="1.51"/><path d="M-63,534L-54,579L-2,566Z" fill="#8e6b78" stroke="#8e6b78" stroke-width="1.51"/><path d="M327,587L388,567L374,534Z" fill="#5981aa" stroke="#5981aa" stroke-width="1.51"/><path d="M430,524L437,483L377,486Z" fill="#6d83a5" stroke="#6d83a5" stroke-width="1.51"/><path d="M327,636L327,587L281,617Z" fill="#5497c6" stroke="#5497c6" stroke-width="1.51"/><path d="M232,148L187,98L189,146Z" fill="#e29e95" stroke="#e29e95" stroke-width="1.51"/><path d="M344,177L295,193L342,224Z" fill="#a1798c" stroke="#a1798c" stroke-width="1.51"/><path d="M281,666L327,636L281,617Z" fill="#4e98c6" stroke="#4e98c6" stroke-width="1.51"/><path d="M-5,188L-53,194L3,224Z" fill="#a54641" stroke="#a54641" stroke-width="1.51"/><path d="M91,139L39,138L85,194Z" fill="#d45c4a" stroke="#d45c4a" stroke-width="1.51"/><path d="M94,89L39,138L91,139Z" fill="#cd5044" stroke="#cd5044" stroke-width="1.51"/><path d="M430,524L377,486L374,534Z" fill="#677fa3" stroke="#677fa3" stroke-width="1.51"/><path d="M429,431L432,280L423,343Z" fill="#89849b" stroke="#89849b" stroke-width="1.51"/><path d="M385,192L344,177L342,224Z" fill="#906376" stroke="#906376" stroke-width="1.51"/><path d="M385,192L342,224L371,240Z" fill="#8d6474" stroke="#8d6474" stroke-width="1.51"/><path d="M226,670L281,666L225,616Z" fill="#7fb3d5" stroke="#7fb3d5" stroke-width="1.51"/><path d="M-18,132L-53,194L-5,188Z" fill="#9f3838" stroke="#9f3838" stroke-width="1.51"/><path d="M429,575L430,524L388,567Z" fill="#57789f" stroke="#57789f" stroke-width="1.51"/><path d="M388,567L430,524L374,534Z" fill="#5c7aa0" stroke="#5c7aa0" stroke-width="1.51"/><path d="M423,343L432,280L384,282Z" fill="#8a798a" stroke="#8a798a" stroke-width="1.51"/><path d="M437,483L432,280L429,431Z" fill="#858ba7" stroke="#858ba7" stroke-width="1.51"/><path d="M234,80L187,98L232,148Z" fill="#d8948e" stroke="#d8948e" stroke-width="1.51"/><path d="M344,177L337,146L295,193Z" fill="#9e7083" stroke="#9e7083" stroke-width="1.51"/><path d="M432,227L385,192L371,240Z" fill="#875e6b" stroke="#875e6b" stroke-width="1.51"/><path d="M-52,675L-50,629L-54,579Z" fill="#77596e" stroke="#77596e" stroke-width="1.51"/><path d="M-54,579L-50,629L-2,623Z" fill="#7d5e71" stroke="#7d5e71" stroke-width="1.51"/><path d="M-2,623L34,684L52,627Z" fill="#916072" stroke="#916072" stroke-width="1.51"/><path d="M-2,681L34,684L-2,623Z" fill="#79546c" stroke="#79546c" stroke-width="1.51"/><path d="M127,725L191,713L147,669Z" fill="#a4a8c1" stroke="#a4a8c1" stroke-width="1.51"/><path d="M147,669L191,713L190,670Z" fill="#a3b5d1" stroke="#a3b5d1" stroke-width="1.51"/><path d="M190,670L191,713L226,670Z" fill="#98b6d7" stroke="#98b6d7" stroke-width="1.51"/><path d="M226,670L239,714L281,666Z" fill="#76a7cf" stroke="#76a7cf" stroke-width="1.51"/><path d="M388,134L337,146L344,177Z" fill="#8b5368" stroke="#8b5368" stroke-width="1.51"/><path d="M274,138L234,80L232,148Z" fill="#c88e8d" stroke="#c88e8d" stroke-width="1.51"/><path d="M127,725L147,669L98,665Z" fill="#a999a9" stroke="#a999a9" stroke-width="1.51"/><path d="M187,98L141,84L146,149Z" fill="#e48f80" stroke="#e48f80" stroke-width="1.51"/><path d="M327,636L378,633L327,587Z" fill="#4580b5" stroke="#4580b5" stroke-width="1.51"/><path d="M281,666L340,663L327,636Z" fill="#3c87bd" stroke="#3c87bd" stroke-width="1.51"/><path d="M324,719L340,663L281,666Z" fill="#3780ba" stroke="#3780ba" stroke-width="1.51"/><path d="M340,663L378,633L327,636Z" fill="#3475ad" stroke="#3475ad" stroke-width="1.51"/><path d="M141,84L94,89L91,139Z" fill="#d86b57" stroke="#d86b57" stroke-width="1.51"/><path d="M39,138L-18,132L-5,188Z" fill="#a03234" stroke="#a03234" stroke-width="1.51"/><path d="M427,619L429,575L388,567Z" fill="#49719b" stroke="#49719b" stroke-width="1.51"/><path d="M430,524L429,575L437,483Z" fill="#627da2" stroke="#627da2" stroke-width="1.51"/><path d="M31,79L-18,132L39,138Z" fill="#a5262f" stroke="#a5262f" stroke-width="1.51"/><path d="M34,684L80,716L98,665Z" fill="#9f6e80" stroke="#9f6e80" stroke-width="1.51"/><path d="M-50,629L-2,681L-2,623Z" fill="#71546c" stroke="#71546c" stroke-width="1.51"/><path d="M191,713L239,714L226,670Z" fill="#8daed3" stroke="#8daed3" stroke-width="1.51"/><path d="M432,280L432,227L384,282Z" fill="#8a6d7b" stroke="#8a6d7b" stroke-width="1.51"/><path d="M385,192L388,134L344,177Z" fill="#824c5d" stroke="#824c5d" stroke-width="1.51"/><path d="M436,190L432,227L432,280Z" fill="#89636f" stroke="#89636f" stroke-width="1.51"/><path d="M53,716L80,716L34,684Z" fill="#975f76" stroke="#975f76" stroke-width="1.51"/><path d="M191,713L183,771L239,714Z" fill="#8fa7cf" stroke="#8fa7cf" stroke-width="1.51"/><path d="M80,716L127,725L98,665Z" fill="#a48494" stroke="#a48494" stroke-width="1.51"/><path d="M189,37L136,43L141,84Z" fill="#d17f75" stroke="#d17f75" stroke-width="1.51"/><path d="M284,81L234,80L274,138Z" fill="#b87f83" stroke="#b87f83" stroke-width="1.51"/><path d="M148,781L183,771L127,725Z" fill="#9894ae" stroke="#9894ae" stroke-width="1.51"/><path d="M-10,723L53,716L34,684Z" fill="#834d6a" stroke="#834d6a" stroke-width="1.51"/><path d="M324,719L286,711L277,760Z" fill="#3b7fb9" stroke="#3b7fb9" stroke-width="1.51"/><path d="M239,714L286,711L281,666Z" fill="#609ac8" stroke="#609ac8" stroke-width="1.51"/><path d="M340,663L374,665L378,633Z" fill="#2a679b" stroke="#2a679b" stroke-width="1.51"/><path d="M378,633L427,619L388,567Z" fill="#3f6b97" stroke="#3f6b97" stroke-width="1.51"/><path d="M324,719L374,665L340,663Z" fill="#2a6daa" stroke="#2a6daa" stroke-width="1.51"/><path d="M324,91L274,138L337,146Z" fill="#9d6a7b" stroke="#9d6a7b" stroke-width="1.51"/><path d="M324,91L284,81L274,138Z" fill="#a26e7b" stroke="#a26e7b" stroke-width="1.51"/><path d="M374,665L427,619L378,633Z" fill="#2d6293" stroke="#2d6293" stroke-width="1.51"/><path d="M429,575L438,680L437,483Z" fill="#4d739c" stroke="#4d739c" stroke-width="1.51"/><path d="M-2,681L-10,723L34,684Z" fill="#704967" stroke="#704967" stroke-width="1.51"/><path d="M-50,629L-52,675L-2,681Z" fill="#6e4f6a" stroke="#6e4f6a" stroke-width="1.51"/><path d="M-63,534L-52,675L-54,579Z" fill="#826273" stroke="#826273" stroke-width="1.51"/><path d="M136,43L94,89L141,84Z" fill="#d36d5d" stroke="#d36d5d" stroke-width="1.51"/><path d="M52,51L31,79L94,89Z" fill="#b93134" stroke="#b93134" stroke-width="1.51"/><path d="M94,89L31,79L39,138Z" fill="#bf3736" stroke="#bf3736" stroke-width="1.51"/><path d="M-45,79L-53,126L-18,132Z" fill="#921e2b" stroke="#921e2b" stroke-width="1.51"/><path d="M-18,132L-53,126L-53,194Z" fill="#9b2f33" stroke="#9b2f33" stroke-width="1.51"/><path d="M-53,194L-53,126L-61,241Z" fill="#a23f3d" stroke="#a23f3d" stroke-width="1.51"/><path d="M432,227L436,190L385,192Z" fill="#855766" stroke="#855766" stroke-width="1.51"/><path d="M437,483L436,190L432,280Z" fill="#8a7d91" stroke="#8a7d91" stroke-width="1.51"/><path d="M388,134L324,91L337,146Z" fill="#8a4f68" stroke="#8a4f68" stroke-width="1.51"/><path d="M423,136L388,134L385,192Z" fill="#7e4557" stroke="#7e4557" stroke-width="1.51"/><path d="M374,665L438,680L427,619Z" fill="#265e90" stroke="#265e90" stroke-width="1.51"/><path d="M286,711L324,719L281,666Z" fill="#3f87bd" stroke="#3f87bd" stroke-width="1.51"/><path d="M277,760L286,711L239,714Z" fill="#5d91c4" stroke="#5d91c4" stroke-width="1.51"/><path d="M189,37L141,84L187,98Z" fill="#db8980" stroke="#db8980" stroke-width="1.51"/><path d="M189,37L187,98L234,80Z" fill="#d48b88" stroke="#d48b88" stroke-width="1.51"/><path d="M189,37L234,80L239,35Z" fill="#c18385" stroke="#c18385" stroke-width="1.51"/><path d="M31,79L-13,82L-18,132Z" fill="#8f1629" stroke="#8f1629" stroke-width="1.51"/><path d="M-15,47L-13,82L31,79Z" fill="#870824" stroke="#870824" stroke-width="1.51"/><path d="M-46,718L-10,723L-2,681Z" fill="#664364" stroke="#664364" stroke-width="1.51"/><path d="M148,781L127,725L92,779Z" fill="#998093" stroke="#998093" stroke-width="1.51"/><path d="M239,35L234,80L284,81Z" fill="#b57b80" stroke="#b57b80" stroke-width="1.51"/><path d="M88,35L94,89L136,43Z" fill="#c65c4d" stroke="#c65c4d" stroke-width="1.51"/><path d="M88,35L52,51L94,89Z" fill="#bb413c" stroke="#bb413c" stroke-width="1.51"/><path d="M127,725L183,771L191,713Z" fill="#9ba2c3" stroke="#9ba2c3" stroke-width="1.51"/><path d="M127,725L80,716L92,779Z" fill="#9c768b" stroke="#9c768b" stroke-width="1.51"/><path d="M147,0L88,35L136,43Z" fill="#bc6459" stroke="#bc6459" stroke-width="1.51"/><path d="M436,190L423,136L385,192Z" fill="#814c5c" stroke="#814c5c" stroke-width="1.51"/><path d="M388,134L389,80L324,91Z" fill="#7b3a52" stroke="#7b3a52" stroke-width="1.51"/><path d="M189,37L147,0L136,43Z" fill="#c27a73" stroke="#c27a73" stroke-width="1.51"/><path d="M296,32L239,35L284,81Z" fill="#9e6d78" stroke="#9e6d78" stroke-width="1.51"/><path d="M296,32L284,81L324,91Z" fill="#925f72" stroke="#925f72" stroke-width="1.51"/><path d="M92,779L80,716L42,774Z" fill="#905970" stroke="#905970" stroke-width="1.51"/><path d="M-52,675L-46,718L-2,681Z" fill="#694866" stroke="#694866" stroke-width="1.51"/><path d="M246,775L277,760L239,714Z" fill="#6690be" stroke="#6690be" stroke-width="1.51"/><path d="M183,771L246,775L239,714Z" fill="#809ac3" stroke="#809ac3" stroke-width="1.51"/><path d="M80,716L53,716L42,774Z" fill="#915872" stroke="#915872" stroke-width="1.51"/><path d="M-15,47L-45,79L-13,82Z" fill="#860824" stroke="#860824" stroke-width="1.51"/><path d="M-13,82L-45,79L-18,132Z" fill="#8f1629" stroke="#8f1629" stroke-width="1.51"/><path d="M-15,47L31,79L52,51Z" fill="#980f27" stroke="#980f27" stroke-width="1.51"/><path d="M42,774L53,716L-10,723Z" fill="#7f4464" stroke="#7f4464" stroke-width="1.51"/><path d="M232,812L246,775L183,771Z" fill="#7a8fb3" stroke="#7a8fb3" stroke-width="1.51"/><path d="M-9,772L42,774L-10,723Z" fill="#643658" stroke="#643658" stroke-width="1.51"/><path d="M187,-16L147,0L189,37Z" fill="#b87c7b" stroke="#b87c7b" stroke-width="1.51"/><path d="M342,31L296,32L324,91Z" fill="#83506b" stroke="#83506b" stroke-width="1.51"/><path d="M393,730L438,680L374,665Z" fill="#1e548b" stroke="#1e548b" stroke-width="1.51"/><path d="M427,619L438,680L429,575Z" fill="#366694" stroke="#366694" stroke-width="1.51"/><path d="M439,-47L437,34L436,190Z" fill="#672a45" stroke="#672a45" stroke-width="1.51"/><path d="M393,730L374,665L324,719Z" fill="#1e5994" stroke="#1e5994" stroke-width="1.51"/><path d="M-3,-1L-15,47L52,51Z" fill="#800624" stroke="#800624" stroke-width="1.51"/><path d="M428,95L389,80L388,134Z" fill="#76354c" stroke="#76354c" stroke-width="1.51"/><path d="M88,35L40,-4L52,51Z" fill="#a32b31" stroke="#a32b31" stroke-width="1.51"/><path d="M187,-16L189,37L236,-14Z" fill="#af7c81" stroke="#af7c81" stroke-width="1.51"/><path d="M337,772L324,719L277,760Z" fill="#2b6eaa" stroke="#2b6eaa" stroke-width="1.51"/><path d="M337,772L393,730L324,719Z" fill="#1a5899" stroke="#1a5899" stroke-width="1.51"/><path d="M-54,770L-9,772L-10,723Z" fill="#5c3457" stroke="#5c3457" stroke-width="1.51"/><path d="M136,821L148,781L92,779Z" fill="#907686" stroke="#907686" stroke-width="1.51"/><path d="M423,136L428,95L388,134Z" fill="#793b50" stroke="#793b50" stroke-width="1.51"/><path d="M389,80L342,31L324,91Z" fill="#7b3d5b" stroke="#7b3d5b" stroke-width="1.51"/><path d="M436,190L428,95L423,136Z" fill="#7c4154" stroke="#7c4154" stroke-width="1.51"/><path d="M274,824L337,772L277,760Z" fill="#316b9f" stroke="#316b9f" stroke-width="1.51"/><path d="M274,824L277,760L246,775Z" fill="#537da9" stroke="#537da9" stroke-width="1.51"/><path d="M236,-14L189,37L239,35Z" fill="#b17c81" stroke="#b17c81" stroke-width="1.51"/><path d="M385,45L342,31L389,80Z" fill="#662b47" stroke="#662b47" stroke-width="1.51"/><path d="M147,0L86,-8L88,35Z" fill="#af544a" stroke="#af544a" stroke-width="1.51"/><path d="M94,814L92,779L43,819Z" fill="#834c5e" stroke="#834c5e" stroke-width="1.51"/><path d="M186,823L183,771L148,781Z" fill="#8c8faa" stroke="#8c8faa" stroke-width="1.51"/><path d="M186,823L232,812L183,771Z" fill="#808dae" stroke="#808dae" stroke-width="1.51"/><path d="M43,819L92,779L42,774Z" fill="#81455a" stroke="#81455a" stroke-width="1.51"/><path d="M147,0L147,-68L86,-8Z" fill="#b06159" stroke="#b06159" stroke-width="1.51"/><path d="M236,-14L239,35L281,-4Z" fill="#966f7a" stroke="#966f7a" stroke-width="1.51"/><path d="M393,730L425,726L438,680Z" fill="#194f88" stroke="#194f88" stroke-width="1.51"/><path d="M430,771L425,726L393,730Z" fill="#114680" stroke="#114680" stroke-width="1.51"/><path d="M94,814L136,821L92,779Z" fill="#8b6672" stroke="#8b6672" stroke-width="1.51"/><path d="M-15,47L-52,36L-45,79Z" fill="#7f0623" stroke="#7f0623" stroke-width="1.51"/><path d="M-45,79L-52,36L-53,126Z" fill="#8b0a25" stroke="#8b0a25" stroke-width="1.51"/><path d="M-53,126L-65,-12L-61,241Z" fill="#94212c" stroke="#94212c" stroke-width="1.51"/><path d="M-3,-1L-52,36L-15,47Z" fill="#730321" stroke="#730321" stroke-width="1.51"/><path d="M437,34L385,45L389,80Z" fill="#642944" stroke="#642944" stroke-width="1.51"/><path d="M136,821L186,823L148,781Z" fill="#8a8399" stroke="#8a8399" stroke-width="1.51"/><path d="M86,-8L40,-4L88,35Z" fill="#9f3234" stroke="#9f3234" stroke-width="1.51"/><path d="M281,-4L239,35L296,32Z" fill="#906876" stroke="#906876" stroke-width="1.51"/><path d="M281,-4L296,32L343,-8Z" fill="#71506a" stroke="#71506a" stroke-width="1.51"/><path d="M343,-8L296,32L342,31Z" fill="#6f4666" stroke="#6f4666" stroke-width="1.51"/><path d="M-4,809L43,819L42,774Z" fill="#6a2e4a" stroke="#6a2e4a" stroke-width="1.51"/><path d="M-46,718L-54,770L-10,723Z" fill="#613a5f" stroke="#613a5f" stroke-width="1.51"/><path d="M-52,675L-54,770L-46,718Z" fill="#643f63" stroke="#643f63" stroke-width="1.51"/><path d="M-63,534L-54,770L-52,675Z" fill="#6e506a" stroke="#6e506a" stroke-width="1.51"/><path d="M377,825L386,770L337,772Z" fill="#0c3d73" stroke="#0c3d73" stroke-width="1.51"/><path d="M337,772L386,770L393,730Z" fill="#10447d" stroke="#10447d" stroke-width="1.51"/><path d="M-4,809L42,774L-9,772Z" fill="#5e2d4c" stroke="#5e2d4c" stroke-width="1.51"/><path d="M129,879L182,873L136,821Z" fill="#8a7f93" stroke="#8a7f93" stroke-width="1.51"/><path d="M182,873L235,861L186,823Z" fill="#7d89a8" stroke="#7d89a8" stroke-width="1.51"/><path d="M40,-4L-3,-1L52,51Z" fill="#8b0a25" stroke="#8b0a25" stroke-width="1.51"/><path d="M4,-50L-3,-1L40,-4Z" fill="#740322" stroke="#740322" stroke-width="1.51"/><path d="M40,-55L40,-4L86,-8Z" fill="#94222d" stroke="#94222d" stroke-width="1.51"/><path d="M232,812L274,824L246,775Z" fill="#5e7da4" stroke="#5e7da4" stroke-width="1.51"/><path d="M235,861L274,824L232,812Z" fill="#5f7ca1" stroke="#5f7ca1" stroke-width="1.51"/><path d="M-54,770L-4,809L-9,772Z" fill="#542a4b" stroke="#542a4b" stroke-width="1.51"/><path d="M240,-63L196,-57L236,-14Z" fill="#a5777f" stroke="#a5777f" stroke-width="1.51"/><path d="M383,-4L343,-8L342,31Z" fill="#5b3051" stroke="#5b3051" stroke-width="1.51"/><path d="M383,-4L342,31L385,45Z" fill="#5a2846" stroke="#5a2846" stroke-width="1.51"/><path d="M386,770L430,771L393,730Z" fill="#0e427a" stroke="#0e427a" stroke-width="1.51"/><path d="M425,726L430,771L438,680Z" fill="#154c86" stroke="#154c86" stroke-width="1.51"/><path d="M442,817L430,771L386,770Z" fill="#09386c" stroke="#09386c" stroke-width="1.51"/><path d="M282,-51L236,-14L281,-4Z" fill="#896776" stroke="#896776" stroke-width="1.51"/><path d="M236,-14L196,-57L187,-16Z" fill="#ad7b80" stroke="#ad7b80" stroke-width="1.51"/><path d="M187,-16L147,-68L147,0Z" fill="#b47672" stroke="#b47672" stroke-width="1.51"/><path d="M274,824L324,831L337,772Z" fill="#225a8f" stroke="#225a8f" stroke-width="1.51"/><path d="M280,862L324,831L274,824Z" fill="#316493" stroke="#316493" stroke-width="1.51"/><path d="M235,861L232,812L186,823Z" fill="#7586a7" stroke="#7586a7" stroke-width="1.51"/><path d="M428,95L437,34L389,80Z" fill="#6c2c46" stroke="#6c2c46" stroke-width="1.51"/><path d="M436,190L437,34L428,95Z" fill="#76364c" stroke="#76364c" stroke-width="1.51"/><path d="M439,-47L436,190L437,483Z" fill="#865a68" stroke="#865a68" stroke-width="1.51"/><path d="M437,34L383,-4L385,45Z" fill="#572542" stroke="#572542" stroke-width="1.51"/><path d="M328,-60L282,-51L281,-4Z" fill="#72556c" stroke="#72556c" stroke-width="1.51"/><path d="M136,821L94,814L129,879Z" fill="#8a6b79" stroke="#8a6b79" stroke-width="1.51"/><path d="M182,873L186,823L136,821Z" fill="#88859e" stroke="#88859e" stroke-width="1.51"/><path d="M328,-60L281,-4L343,-8Z" fill="#694966" stroke="#694966" stroke-width="1.51"/><path d="M240,-63L147,-68L196,-57Z" fill="#b27e82" stroke="#b27e82" stroke-width="1.51"/><path d="M196,-57L147,-68L187,-16Z" fill="#b47b7c" stroke="#b47b7c" stroke-width="1.51"/><path d="M-4,809L39,861L43,819Z" fill="#662a44" stroke="#662a44" stroke-width="1.51"/><path d="M-54,770L-47,824L-4,809Z" fill="#4f2544" stroke="#4f2544" stroke-width="1.51"/><path d="M147,-68L86,-63L86,-8Z" fill="#aa5249" stroke="#aa5249" stroke-width="1.51"/><path d="M-3,-1L-65,-12L-52,36Z" fill="#6a0020" stroke="#6a0020" stroke-width="1.51"/><path d="M-52,36L-65,-12L-53,126Z" fill="#7d0623" stroke="#7d0623" stroke-width="1.51"/><path d="M-61,241L-65,-12L-61,274Z" fill="#9e3737" stroke="#9e3737" stroke-width="1.51"/><path d="M4,-50L-65,-12L-3,-1Z" fill="#67001f" stroke="#67001f" stroke-width="1.51"/><path d="M282,-51L240,-63L236,-14Z" fill="#926d79" stroke="#926d79" stroke-width="1.51"/><path d="M86,-63L40,-55L86,-8Z" fill="#9b3033" stroke="#9b3033" stroke-width="1.51"/><path d="M79,870L94,814L43,819Z" fill="#7f4658" stroke="#7f4658" stroke-width="1.51"/><path d="M-13,863L39,861L-4,809Z" fill="#532340" stroke="#532340" stroke-width="1.51"/><path d="M39,861L79,870L43,819Z" fill="#78394f" stroke="#78394f" stroke-width="1.51"/><path d="M235,861L280,862L274,824Z" fill="#51769e" stroke="#51769e" stroke-width="1.51"/><path d="M324,831L377,825L337,772Z" fill="#11457e" stroke="#11457e" stroke-width="1.51"/><path d="M182,873L280,862L235,861Z" fill="#6b82a4" stroke="#6b82a4" stroke-width="1.51"/><path d="M344,873L377,825L324,831Z" fill="#0f437b" stroke="#0f437b" stroke-width="1.51"/><path d="M40,-55L4,-50L40,-4Z" fill="#820724" stroke="#820724" stroke-width="1.51"/><path d="M-63,-63L4,-50L40,-55Z" fill="#67001f" stroke="#67001f" stroke-width="1.51"/><path d="M182,873L344,873L280,862Z" fill="#4b729c" stroke="#4b729c" stroke-width="1.51"/><path d="M79,870L129,879L94,814Z" fill="#875d6b" stroke="#875d6b" stroke-width="1.51"/><path d="M391,-64L328,-60L343,-8Z" fill="#593052" stroke="#593052" stroke-width="1.51"/><path d="M437,34L437,-3L383,-4Z" fill="#502340" stroke="#502340" stroke-width="1.51"/><path d="M439,-47L437,-3L437,34Z" fill="#4c213f" stroke="#4c213f" stroke-width="1.51"/><path d="M282,-51L328,-60L240,-63Z" fill="#7c5d71" stroke="#7c5d71" stroke-width="1.51"/><path d="M240,-63L391,-64L147,-68Z" fill="#8e6b78" stroke="#8e6b78" stroke-width="1.51"/><path d="M391,-64L343,-8L383,-4Z" fill="#4e2341" stroke="#4e2341" stroke-width="1.51"/><path d="M39,861L-13,863L79,870Z" fill="#6f2d46" stroke="#6f2d46" stroke-width="1.51"/><path d="M79,870L-54,870L129,879Z" fill="#77374e" stroke="#77374e" stroke-width="1.51"/><path d="M-47,824L-13,863L-4,809Z" fill="#4c213f" stroke="#4c213f" stroke-width="1.51"/><path d="M438,680L442,817L437,483Z" fill="#245c8f" stroke="#245c8f" stroke-width="1.51"/><path d="M430,771L442,817L438,680Z" fill="#0e427a" stroke="#0e427a" stroke-width="1.51"/><path d="M377,825L442,817L386,770Z" fill="#063264" stroke="#063264" stroke-width="1.51"/><path d="M424,865L442,817L377,825Z" fill="#053061" stroke="#053061" stroke-width="1.51"/><path d="M280,862L344,873L324,831Z" fill="#20568c" stroke="#20568c" stroke-width="1.51"/><path d="M129,879L344,873L182,873Z" fill="#7586a7" stroke="#7586a7" stroke-width="1.51"/><path d="M344,873L382,864L377,825Z" fill="#073568" stroke="#073568" stroke-width="1.51"/><path d="M-47,824L-54,870L-13,863Z" fill="#4c213f" stroke="#4c213f" stroke-width="1.51"/><path d="M-13,863L-54,870L79,870Z" fill="#502340" stroke="#502340" stroke-width="1.51"/><path d="M-54,770L-54,870L-47,824Z" fill="#4c213f" stroke="#4c213f" stroke-width="1.51"/><path d="M-63,534L-54,870L-54,770Z" fill="#633e62" stroke="#633e62" stroke-width="1.51"/><path d="M4,-50L-63,-63L-65,-12Z" fill="#67001f" stroke="#67001f" stroke-width="1.51"/><path d="M86,-63L-63,-63L40,-55Z" fill="#7b0523" stroke="#7b0523" stroke-width="1.51"/><path d="M147,-68L-63,-63L86,-63Z" fill="#95232d" stroke="#95232d" stroke-width="1.51"/><path d="M328,-60L391,-64L240,-63Z" fill="#694766" stroke="#694766" stroke-width="1.51"/><path d="M439,-47L391,-64L383,-4Z" fill="#4c213f" stroke="#4c213f" stroke-width="1.51"/><path d="M437,-3L439,-47L383,-4Z" fill="#4c213f" stroke="#4c213f" stroke-width="1.51"/><path d="M442,817L439,-47L437,483Z" fill="#828ba9" stroke="#828ba9" stroke-width="1.51"/><path d="M344,873L424,865L382,864Z" fill="#053061" stroke="#053061" stroke-width="1.51"/><path d="M382,864L424,865L377,825Z" fill="#053061" stroke="#053061" stroke-width="1.51"/></svg>